<?xml version="1.0" standalone="no"?>
<!DOCTYPE svg PUBLIC "-//W3C//DTD SVG 20010904//EN"
 "http://www.w3.org/TR/2001/REC-SVG-20010904/DTD/svg10.dtd">
<svg version="1.0" xmlns="http://www.w3.org/2000/svg"
 width="838.000000pt" height="1280.000000pt" viewBox="0 0 838.000000 1280.000000"
 preserveAspectRatio="xMidYMid meet">
<metadata>
Created by potrace 1.15, written by Peter Selinger 2001-2017
</metadata>
<g transform="translate(0.000000,1280.000000) scale(0.100000,-0.100000)"
fill="#000000" stroke="none">
<path d="M5625 12784 c-38 -8 -112 -35 -163 -60 -74 -36 -107 -59 -167 -120
-40 -41 -90 -81 -109 -89 -19 -8 -81 -22 -138 -30 -146 -22 -211 -41 -303 -86
-56 -27 -116 -46 -201 -63 -124 -25 -295 -71 -327 -88 -9 -5 -45 -34 -79 -64
-71 -64 -89 -74 -190 -110 -175 -63 -301 -144 -473 -304 -60 -56 -157 -138
-215 -183 -131 -101 -370 -334 -503 -491 -56 -66 -141 -165 -190 -220 -93
-107 -215 -282 -267 -381 -17 -33 -37 -64 -44 -70 -18 -14 -32 -44 -40 -84 -3
-18 -21 -55 -40 -81 -19 -27 -44 -65 -54 -87 -11 -21 -32 -49 -46 -62 -14 -14
-26 -30 -26 -37 0 -7 -29 -55 -64 -106 -74 -109 -96 -150 -96 -177 0 -11 -18
-40 -39 -65 -69 -79 -178 -298 -195 -391 -4 -21 -19 -52 -32 -68 -47 -55 -113
-215 -99 -238 3 -4 -8 -32 -24 -61 -16 -29 -42 -96 -57 -148 -25 -88 -26 -102
-20 -220 6 -111 5 -132 -14 -185 -12 -34 -25 -109 -30 -180 -6 -66 -19 -155
-30 -197 -11 -43 -20 -99 -20 -125 0 -26 -18 -119 -40 -208 -69 -279 -71 -291
-80 -750 -11 -522 -25 -747 -66 -1045 -12 -93 -14 -164 -8 -368 l7 -252 -115
-119 c-161 -165 -261 -321 -331 -518 -42 -115 -145 -462 -173 -580 -14 -59
-43 -160 -64 -223 -22 -63 -44 -146 -50 -185 -8 -53 -25 -99 -71 -190 -80
-155 -101 -185 -220 -311 -116 -123 -129 -154 -111 -242 7 -32 28 -89 47 -129
19 -39 35 -76 35 -80 0 -13 64 -72 138 -128 36 -26 77 -69 93 -95 16 -27 45
-60 64 -75 20 -14 44 -43 55 -64 26 -51 78 -96 154 -130 52 -23 69 -37 90 -73
14 -25 26 -53 26 -64 0 -65 108 -145 325 -240 299 -131 328 -138 635 -153 247
-13 260 -17 465 -158 43 -30 101 -60 133 -69 72 -21 87 -34 108 -96 21 -64 42
-76 208 -124 l131 -39 100 -96 c73 -70 113 -101 150 -114 70 -26 121 -60 189
-124 97 -93 101 -111 45 -227 -29 -59 -41 -136 -24 -152 24 -24 226 7 278 42
42 29 47 62 26 186 -20 118 -24 190 -9 190 14 0 56 -88 90 -189 35 -105 38
-178 15 -396 -20 -184 -20 -180 18 -220 39 -42 143 -105 173 -105 36 0 71 37
109 113 37 75 56 155 74 319 6 54 20 121 30 149 39 100 36 158 -14 329 -9 31
-19 126 -24 218 -12 208 -13 209 -194 438 -17 23 -61 83 -97 135 -36 52 -112
142 -170 200 l-105 106 -110 36 c-158 52 -345 96 -450 107 -95 9 -134 16 -280
49 -50 11 -154 25 -230 31 -445 35 -431 31 -509 150 -31 48 -107 133 -210 235
-222 222 -336 294 -594 381 -59 19 -111 39 -116 44 -17 17 6 81 56 155 50 73
50 76 33 95 -18 20 -18 22 -1 57 19 39 182 269 198 279 5 3 16 0 25 -8 14 -12
16 -10 10 13 -7 28 17 71 85 151 31 37 102 164 185 332 14 27 28 73 33 102 11
66 32 106 85 166 24 26 64 89 90 140 63 122 114 197 180 262 127 128 286 201
485 225 52 7 108 18 124 26 21 11 33 12 48 4 30 -16 390 7 478 31 20 5 65 32
100 60 50 38 85 56 150 76 47 14 160 50 253 81 l167 55 93 95 c139 143 126
137 238 107 52 -14 113 -36 137 -50 85 -50 151 -68 239 -66 46 1 84 -2 88 -8
11 -18 120 -10 205 15 93 28 120 31 138 13 20 -20 14 -45 -19 -70 l-30 -24 80
-87 c81 -86 94 -111 89 -157 -2 -17 4 -27 22 -37 14 -6 51 -39 82 -71 31 -33
76 -68 100 -79 84 -40 234 -92 272 -95 35 -3 40 0 46 21 l5 24 13 -27 12 -27
98 7 98 7 36 -32 c26 -23 45 -31 72 -31 21 0 68 -7 107 -16 79 -18 99 -37 99
-99 0 -60 28 -105 80 -132 78 -39 103 -39 160 -3 27 17 64 48 81 68 l32 36 -5
108 -6 108 50 0 c68 0 107 -19 181 -88 65 -60 113 -92 140 -92 8 0 25 -11 38
-25 15 -15 35 -25 53 -25 59 0 239 -107 345 -205 78 -73 117 -135 156 -253 58
-175 75 -192 194 -192 81 0 119 14 127 46 3 12 -4 62 -16 111 -25 99 -79 202
-147 274 -24 25 -43 51 -43 56 0 6 -21 34 -47 63 -40 44 -45 55 -35 71 10 16
5 24 -42 64 -29 26 -59 58 -67 71 -9 17 -63 50 -173 106 -173 86 -226 120
-226 144 0 27 28 26 100 -6 40 -18 93 -38 119 -46 57 -17 235 -115 270 -148
27 -25 146 -86 169 -86 7 0 32 -18 56 -40 24 -22 64 -49 90 -61 26 -11 52 -31
58 -43 6 -15 19 -24 33 -24 34 0 105 -51 128 -92 10 -19 27 -44 36 -55 31 -35
34 -45 41 -154 12 -179 37 -203 218 -209 136 -5 216 4 238 26 23 23 13 98 -26
199 -21 55 -41 91 -62 108 -17 14 -39 42 -48 61 -44 86 -185 232 -240 249 -14
4 -41 22 -60 39 -103 92 -281 198 -370 220 -62 16 -156 58 -283 127 -44 24
-77 34 -145 41 -49 5 -103 18 -125 29 -34 17 -343 112 -477 146 -30 7 -129 18
-220 23 -109 6 -189 16 -235 29 -140 40 -311 103 -332 124 -48 44 -39 56 211
302 232 228 332 339 510 563 183 231 288 390 412 624 40 75 85 155 100 178
l27 40 -19 42 -18 41 49 41 c84 68 148 140 185 205 71 125 91 152 137 184 83
57 120 96 156 165 48 91 57 129 41 167 -16 38 -18 115 -3 115 7 0 27 -9 45
-21 48 -29 65 -22 83 35 13 41 23 53 56 70 73 38 94 125 55 228 -15 39 -20 77
-20 144 0 155 -44 286 -133 396 -74 92 -111 148 -207 313 -178 306 -265 417
-361 462 -25 12 -54 34 -64 50 -31 48 -206 222 -301 298 -102 83 -146 127
-232 235 -80 101 -255 270 -328 315 -32 21 -76 53 -96 73 l-37 35 -75 -7 c-45
-4 -77 -3 -80 3 -14 22 110 92 252 143 114 40 338 158 395 208 25 22 59 61 76
87 30 45 31 50 31 152 -1 137 -19 237 -69 375 -22 61 -42 123 -45 137 -3 14
-26 53 -51 85 -25 32 -48 69 -52 82 -3 13 -3 65 0 115 7 120 -5 183 -57 292
-54 115 -82 145 -230 257 -162 122 -218 148 -316 147 -41 0 -106 -7 -145 -15z
m349 -128 c48 -48 80 -101 71 -116 -12 -20 -25 -9 -55 43 -16 29 -41 64 -55
77 -14 13 -25 27 -25 32 0 18 23 6 64 -36z m-67 -42 c55 -57 66 -82 47 -111
-12 -19 -10 -29 17 -88 38 -81 43 -151 15 -213 -23 -52 -12 -74 25 -48 33 23
86 21 99 -4 6 -11 26 -26 45 -34 37 -16 88 -79 105 -131 12 -37 4 -61 -33
-102 -22 -25 -16 -59 9 -49 49 19 64 18 64 -2 0 -27 26 -53 46 -45 11 4 13 14
9 33 -7 30 4 43 28 34 22 -8 25 -21 47 -170 10 -74 24 -153 31 -176 l11 -43
19 38 c23 43 39 41 39 -6 0 -54 -20 -107 -54 -145 -18 -20 -36 -45 -39 -55 -4
-10 -26 -26 -49 -36 -24 -10 -59 -35 -78 -56 -19 -20 -57 -48 -83 -62 -61 -31
-292 -89 -383 -97 -69 -5 -69 -5 -29 9 22 7 49 14 60 16 65 7 -154 17 -420 18
-170 1 -394 6 -496 11 -169 8 -192 11 -255 37 l-69 28 134 7 c120 6 166 17
149 33 -9 9 -174 25 -263 25 -165 0 -228 20 -361 112 -77 53 -103 90 -149 212
-29 78 -32 151 -9 239 21 83 45 126 109 197 51 58 73 95 62 106 -3 3 -23 -4
-46 -15 -50 -26 -51 -26 -51 -1 0 12 13 28 32 40 49 30 246 91 313 97 112 9
321 -51 435 -126 54 -36 74 -63 84 -111 3 -14 21 -44 41 -65 l35 -40 19 23
c11 13 23 46 26 77 6 47 4 60 -18 97 -45 76 -185 198 -227 198 -24 0 -42 24
-34 44 4 9 20 24 36 32 20 11 28 20 23 31 -3 9 0 20 7 25 16 9 132 10 246 1
l82 -6 1 -76 c0 -42 2 -71 4 -66 2 6 15 48 30 95 15 47 49 128 76 182 42 83
53 98 81 106 58 18 70 20 217 21 l144 1 44 -46z m293 -128 c0 -7 -10 -25 -21
-40 l-21 -27 -24 22 c-30 28 -30 37 -1 49 34 13 67 12 67 -4z m-2449 -854
c-74 -265 -144 -419 -177 -391 -34 28 1 172 86 345 63 130 112 201 118 171 2
-10 -10 -66 -27 -125z m211 111 c22 -20 23 -46 3 -141 -9 -40 -14 -103 -13
-140 l3 -67 -37 -3 c-49 -4 -78 12 -78 44 0 25 66 300 76 316 8 13 26 9 46 -9z
m-386 -267 c-20 -56 -36 -118 -36 -137 -1 -49 -36 -202 -59 -254 -37 -83 -89
-48 -77 51 8 66 77 265 127 365 77 154 101 140 45 -25z m230 43 c-7 -87 -27
-139 -52 -139 -14 0 -16 9 -12 53 5 49 50 167 64 167 4 0 4 -37 0 -81z m294
-51 c31 -42 47 -84 37 -94 -10 -11 -45 7 -61 31 -20 31 -33 105 -17 105 6 0
25 -19 41 -42z m-646 -35 c-4 -16 -20 -71 -36 -123 -38 -125 -58 -220 -59
-283 0 -29 -5 -67 -12 -86 -14 -40 -58 -76 -81 -68 -45 17 5 254 96 456 46
103 109 174 92 104z m-114 -32 c0 -5 -13 -45 -29 -89 -37 -100 -97 -339 -107
-422 -7 -66 -39 -117 -67 -107 -20 6 -19 103 2 189 27 105 169 438 187 438 8
0 14 -4 14 -9z m992 -157 c33 -21 92 -47 132 -60 l71 -23 -70 0 c-96 -1 -143
13 -157 47 -7 15 -21 37 -32 50 -28 31 -13 28 56 -14z m-282 -9 c4 -16 12 -40
18 -52 29 -53 7 -140 -53 -211 -39 -47 -136 -102 -178 -102 -29 0 -45 10 -91
53 -35 33 -56 61 -56 75 0 31 58 92 164 171 148 111 185 123 196 66z m307
-136 c30 -15 51 -17 128 -12 51 3 101 3 112 -1 16 -7 16 -9 -7 -21 -14 -8 -35
-14 -47 -15 -60 -1 -313 -100 -383 -150 -49 -35 -54 -54 -23 -91 15 -17 45
-40 68 -50 l40 -18 23 29 c16 21 43 36 87 49 79 25 541 102 610 103 81 0 225
-14 231 -23 2 -4 -7 -16 -21 -25 -44 -29 -25 -85 24 -69 9 3 21 20 26 38 14
46 53 49 93 6 30 -32 30 -32 58 -15 22 15 36 17 78 10 28 -5 118 -9 200 -9
163 0 187 -9 118 -44 -21 -11 -63 -40 -92 -65 -33 -29 -73 -51 -106 -61 -68
-20 -104 -60 -104 -117 0 -49 -37 -103 -133 -196 -72 -68 -147 -108 -226 -121
-53 -8 -88 -28 -74 -42 5 -5 49 -11 98 -15 50 -3 112 -13 138 -22 35 -12 53
-13 64 -6 29 18 26 35 -6 47 -17 6 -31 14 -31 18 0 3 26 22 58 42 31 19 73 52
91 71 21 22 44 36 59 36 19 0 28 10 45 50 23 54 42 68 31 23 -12 -48 -51 -117
-84 -148 -37 -35 -103 -130 -183 -265 -31 -52 -86 -133 -122 -180 -36 -47 -88
-116 -114 -155 -58 -84 -83 -107 -136 -124 -75 -25 -152 -79 -192 -136 -34
-47 -166 -210 -285 -349 -52 -61 -121 -106 -221 -146 -169 -67 -359 -100 -460
-79 -70 14 -155 16 -207 5 -34 -8 -39 -5 -108 60 -40 37 -69 70 -65 74 4 4 48
20 97 36 106 33 172 72 282 165 121 102 143 150 29 65 -121 -91 -314 -186
-457 -226 -91 -25 -198 -37 -198 -22 0 13 62 32 103 32 75 0 329 114 483 216
128 84 239 198 147 151 -15 -8 -75 -50 -133 -92 -118 -87 -211 -138 -243 -133
-20 3 -17 8 27 55 l48 52 -53 -29 c-30 -16 -76 -37 -104 -46 -67 -22 -73 -29
-44 -53 16 -13 21 -23 14 -30 -15 -15 -178 -60 -259 -72 -83 -12 -159 -37
-150 -50 16 -27 109 -62 221 -84 97 -19 152 -44 208 -96 58 -53 85 -105 92
-175 4 -36 10 -54 19 -54 9 0 14 12 14 35 0 33 21 57 36 42 10 -10 33 -112 48
-217 l16 -105 -27 -22 c-15 -12 -63 -42 -107 -65 -92 -50 -83 -57 40 -32 73
14 88 14 95 3 23 -38 -66 -94 -148 -92 -29 0 -53 -4 -53 -8 0 -24 124 -31 262
-15 l76 8 17 -31 c9 -18 19 -54 22 -81 4 -39 1 -55 -16 -84 -24 -38 -104 -96
-132 -96 -24 0 -69 -21 -69 -32 0 -15 100 3 194 34 50 16 99 27 110 25 18 -3
15 -9 -29 -52 -27 -26 -90 -71 -139 -99 -95 -54 -123 -82 -64 -66 59 18 132
59 201 115 38 30 72 55 77 55 12 0 45 -48 64 -94 23 -54 20 -90 -10 -125 -30
-36 -139 -91 -180 -91 -16 0 -36 -5 -44 -10 -13 -9 -13 -11 0 -20 27 -18 113
-11 175 15 73 30 75 30 75 5 0 -33 -46 -68 -106 -80 -61 -13 -74 -24 -45 -39
28 -15 97 -13 129 3 40 21 87 74 116 134 15 28 31 52 36 52 6 0 27 -9 47 -20
21 -11 54 -20 73 -19 l35 1 -27 10 c-16 5 -28 14 -28 19 0 19 62 24 250 21
205 -2 336 -14 352 -30 6 -6 13 -25 17 -43 l7 -33 114 -13 c139 -16 243 -43
313 -83 30 -17 68 -30 87 -30 49 0 107 -20 131 -46 18 -20 20 -26 9 -39 -11
-13 -26 -15 -81 -9 -88 8 -101 0 -55 -38 20 -16 36 -36 36 -44 0 -24 -44 -16
-146 30 -135 59 -239 96 -275 96 -41 0 -109 -62 -109 -101 0 -42 132 -229 270
-384 40 -44 88 -104 107 -133 37 -57 55 -62 63 -16 3 17 11 29 20 29 22 0 26
-144 5 -185 -17 -33 -59 -49 -84 -33 -20 14 -17 59 5 84 17 18 15 19 -34 19
-28 0 -58 3 -67 6 -9 4 -52 79 -95 168 -46 94 -99 186 -127 221 -50 61 -128
114 -170 115 -14 0 -49 -25 -92 -66 l-70 -66 51 -61 c69 -83 98 -147 98 -218
0 -40 6 -63 19 -80 10 -13 28 -44 41 -69 12 -25 38 -64 56 -87 44 -54 55 -86
48 -136 -9 -58 -19 -67 -76 -67 -65 0 -84 12 -93 57 -4 21 -13 45 -21 53 -7 9
-20 49 -29 90 -30 145 -138 324 -273 453 -72 68 -106 74 -168 29 -67 -49 -68
-52 -28 -108 85 -118 85 -117 98 -317 11 -146 17 -192 35 -231 25 -58 26 -77
4 -119 -9 -18 -22 -50 -28 -72 -16 -54 -42 -57 -95 -9 -46 42 -46 40 -15 154
13 49 16 90 13 170 -4 101 -7 111 -52 210 -26 58 -54 119 -61 136 -11 27 -22
34 -67 44 -93 22 -119 45 -157 142 -7 19 -21 30 -48 38 -68 19 -103 61 -148
178 -16 43 -36 79 -50 88 -28 18 -132 193 -174 294 -40 93 -55 110 -98 110
-37 0 -40 7 -18 36 21 28 19 31 -26 30 -52 -1 -59 15 -23 49 23 22 26 28 14
36 -8 5 -31 9 -50 8 -57 -3 -70 0 -70 15 0 8 16 20 35 26 67 22 28 46 -56 35
-62 -9 -89 7 -63 36 9 10 32 23 51 30 54 18 35 34 -42 34 -42 0 -70 4 -72 11
-2 6 17 30 43 53 l47 41 -74 -2 c-90 -4 -95 8 -24 54 27 18 51 41 53 50 3 16
1 16 -32 3 -37 -15 -93 -20 -120 -9 -26 10 -18 31 16 43 43 15 98 59 98 78 0
10 -5 13 -17 8 -42 -16 -121 -28 -147 -21 -24 6 -26 9 -15 23 8 8 42 33 76 55
35 22 63 44 63 49 0 6 -35 9 -82 7 -49 -2 -85 1 -88 7 -5 10 50 50 121 88 48
26 24 35 -81 29 -60 -3 -89 -1 -94 7 -7 11 11 20 142 76 23 10 42 22 42 27 0
4 -38 8 -83 8 -79 0 -87 2 -128 33 l-44 32 105 5 c58 3 111 9 118 13 19 13 14
27 -9 27 -32 0 -89 30 -106 56 -8 13 -19 43 -25 66 -5 23 -14 46 -21 50 -17
11 -46 -20 -53 -58 -19 -104 -41 19 -25 144 6 46 14 88 18 95 14 21 246 241
292 277 45 35 101 133 101 177 0 31 14 36 36 12 15 -17 16 -24 6 -53 -15 -40
-16 -96 -2 -96 15 0 80 106 80 130 0 11 -7 23 -15 26 -22 9 -19 19 16 59 18
20 29 41 25 50 -6 17 -32 20 -41 5 -3 -5 -13 -10 -22 -10 -44 0 116 120 189
142 21 6 38 13 38 15 0 3 -18 25 -39 51 -45 54 -95 178 -94 237 0 22 10 65 21
95 14 36 22 79 22 125 1 86 11 115 83 234 40 65 57 104 57 128 0 40 33 78 76
89 16 4 53 2 84 -5 30 -7 80 -15 110 -18 50 -4 61 -1 119 34 94 55 166 125
198 191 25 51 28 67 27 149 l-1 92 84 -66 c47 -36 101 -74 120 -84z m-1267
-133 c-17 -55 -39 -126 -48 -156 -15 -47 -20 -55 -42 -55 -24 0 -25 3 -24 50
2 61 49 187 101 270 l38 60 3 -34 c2 -18 -11 -79 -28 -135z m3275 134 c10 -16
-13 -39 -67 -66 -64 -32 -130 -48 -326 -79 -136 -21 -198 -25 -360 -24 -226 0
-323 11 -300 34 3 3 135 9 294 15 371 12 576 43 679 105 44 26 70 30 80 15z
m-725 -70 c0 -5 -25 -10 -56 -10 -34 0 -53 4 -49 10 3 6 28 10 56 10 27 0 49
-4 49 -10z m-2669 -75 c-16 -91 -57 -218 -80 -246 l-18 -23 -12 23 c-19 35 2
110 62 222 28 54 53 96 55 94 3 -2 -1 -34 -7 -70z m599 6 c0 -19 -215 -271
-231 -271 -18 0 -8 29 37 99 44 68 46 75 40 121 -5 35 -3 50 6 53 23 9 148 7
148 -2z m1089 -10 c18 -12 5 -31 -22 -31 -29 0 -51 15 -43 29 8 13 45 14 65 2z
m-1985 -183 c-61 -111 -127 -161 -74 -58 21 41 99 134 107 127 2 -2 -13 -33
-33 -69z m144 -31 c2 -9 -8 -42 -22 -73 -19 -41 -30 -55 -43 -52 -23 5 -21 42
6 103 15 34 25 46 38 43 10 -2 19 -11 21 -21z m152 -127 c-11 -22 -40 -70 -64
-108 -123 -190 -189 -379 -236 -677 -11 -71 -36 -206 -55 -300 -54 -272 -96
-663 -77 -716 9 -22 10 -22 15 -4 4 11 13 81 22 155 20 171 35 258 95 555 26
132 58 303 70 380 42 273 59 335 91 335 14 0 9 -42 -24 -235 -14 -82 -35 -206
-46 -275 -12 -69 -28 -163 -36 -209 -8 -46 -18 -122 -22 -168 -7 -91 0 -101
41 -60 29 29 46 103 46 200 0 157 65 685 96 781 30 93 169 350 184 341 11 -7
-8 -62 -50 -145 -54 -107 -80 -186 -100 -309 -24 -146 -66 -490 -83 -686 -13
-142 -16 -153 -45 -193 -45 -63 -90 -180 -102 -264 -6 -40 -19 -104 -30 -143
-31 -115 -52 -247 -46 -291 3 -23 15 -61 27 -84 21 -40 22 -50 16 -205 -4 -90
-10 -215 -13 -279 -4 -70 -3 -116 2 -116 5 0 18 32 28 70 19 74 40 96 31 33
-27 -196 -31 -273 -18 -287 4 -4 15 3 24 15 26 35 42 15 37 -46 -5 -60 -57
-160 -139 -266 -57 -73 -89 -121 -89 -131 0 -22 30 3 132 108 62 64 125 122
139 129 17 9 34 34 49 70 23 57 42 67 48 26 6 -41 -6 -65 -81 -153 -40 -48
-91 -119 -112 -159 -22 -39 -61 -95 -87 -125 -87 -100 -86 -123 3 -50 64 53
118 114 179 205 45 67 80 90 80 54 0 -34 -89 -204 -167 -321 -42 -62 -73 -115
-71 -118 9 -8 148 146 222 246 74 101 85 112 99 103 29 -17 -25 -146 -120
-289 -31 -46 -53 -87 -49 -91 3 -4 66 53 140 125 73 73 138 132 144 132 36 0
-11 -121 -83 -219 -30 -41 -55 -78 -55 -82 0 -33 53 9 177 138 78 81 145 144
149 140 12 -12 -14 -122 -49 -211 -19 -48 -46 -95 -68 -118 -44 -47 -73 -49
-221 -13 -144 34 -300 55 -458 62 -103 4 -144 10 -172 24 -40 20 -40 21 -57
-32 -19 -60 -57 -87 -137 -98 -78 -12 -114 -22 -361 -109 l-173 -61 -12 22
c-6 12 -13 84 -16 167 -3 118 1 183 22 345 48 365 95 563 232 983 2 7 0 11 -5
8 -24 -15 -119 -277 -185 -508 -95 -331 -121 -530 -114 -850 4 -170 3 -208 -8
-208 -24 0 -29 51 -28 305 1 328 21 476 110 825 25 96 61 245 79 330 29 130
113 415 155 525 l11 30 22 -49 c20 -48 20 -50 3 -98 -17 -50 -15 -71 5 -51 19
19 28 85 39 293 16 316 48 600 79 705 4 17 18 49 30 70 l22 40 -6 -60 c-3 -33
-17 -139 -30 -235 -29 -211 -40 -351 -27 -330 18 27 41 132 91 425 54 310 73
397 97 433 35 53 44 11 19 -85 -8 -32 -33 -175 -55 -318 -22 -143 -51 -321
-65 -395 -23 -129 -37 -247 -50 -430 -3 -46 -4 -82 -1 -80 2 3 14 57 25 120
12 63 42 201 66 305 53 232 61 286 75 490 23 351 76 558 149 583 37 13 58 45
70 108 21 110 177 424 211 424 14 0 -4 -47 -84 -216 -50 -108 -81 -187 -90
-235 -8 -41 -26 -128 -40 -194 -14 -66 -37 -201 -52 -300 -14 -99 -41 -254
-60 -345 -52 -245 -84 -460 -91 -600 -4 -99 -3 -123 7 -113 7 6 18 68 26 142
16 153 39 275 96 496 51 201 83 291 118 331 28 32 47 121 70 329 12 111 12
111 1 100 -11 -12 -33 -103 -65 -268 -27 -137 -32 -151 -48 -141 -16 10 -3
178 27 338 35 188 67 284 114 341 21 26 64 95 96 153 69 129 184 307 192 298
12 -12 -196 -413 -233 -450 -19 -19 -60 -111 -69 -153 -10 -50 9 -39 23 12 11
43 74 126 86 114 9 -8 -70 -426 -114 -604 -44 -180 -64 -296 -79 -465 -21
-227 -11 -213 49 70 32 151 72 334 90 405 17 72 36 179 41 240 13 169 83 415
161 570 35 68 169 288 200 328 39 49 54 47 28 -3z m2970 -27 c199 -41 291
-114 491 -394 33 -47 78 -89 170 -158 68 -52 136 -99 152 -105 15 -6 27 -17
27 -24 0 -8 9 -25 19 -38 11 -14 27 -49 37 -77 31 -95 77 -144 174 -182 36
-14 88 -43 117 -64 28 -22 60 -44 71 -50 21 -11 68 -98 59 -107 -3 -3 -39 26
-81 64 -82 77 -153 111 -241 119 -46 4 -58 0 -160 -58 -162 -91 -266 -142
-273 -134 -4 4 21 33 55 65 35 31 60 60 57 63 -3 3 -44 -8 -90 -25 -91 -31
-159 -35 -159 -8 0 9 11 16 25 18 40 4 120 44 120 60 0 12 -11 13 -55 7 -30
-3 -55 -3 -55 1 0 3 16 24 35 45 31 35 44 59 30 59 -2 0 -28 -9 -57 -19 -117
-43 -126 -35 -51 41 26 26 44 51 40 54 -4 4 -42 -7 -84 -24 -68 -26 -183 -55
-183 -46 0 2 33 25 73 53 40 27 79 57 87 67 14 16 13 17 -20 10 -19 -3 -78
-19 -130 -35 -187 -58 -211 -50 -72 23 96 50 140 81 130 91 -3 4 -57 -7 -119
-24 -62 -17 -116 -28 -121 -25 -19 12 -5 27 50 52 l57 26 -34 4 c-19 2 -70 -1
-114 -7 -44 -6 -108 -11 -141 -10 l-61 1 50 12 c66 17 101 32 136 57 57 40 26
49 -102 27 -86 -14 -111 -1 -58 31 19 12 39 23 44 25 26 9 -18 27 -81 33 l-69
6 -2 69 c-3 64 0 75 43 160 37 74 83 185 119 285 5 14 19 12 145 -14z m-2760
8 c0 -5 -18 -49 -40 -99 -22 -49 -40 -104 -40 -121 0 -20 -5 -31 -14 -31 -8 0
-23 -16 -35 -36 -21 -34 -41 -38 -41 -7 0 16 80 179 125 258 25 41 45 58 45
36z m170 -140 c0 -49 -14 -70 -37 -55 -20 13 -20 78 -1 101 17 21 38 -4 38
-46z m-129 -132 c-12 -40 -38 -58 -47 -34 -8 21 2 54 28 95 l23 35 3 -30 c2
-16 -1 -46 -7 -66z m-876 -116 c-31 -65 -72 -152 -90 -193 -56 -130 -95 -200
-110 -200 -8 0 -15 8 -15 19 0 26 203 431 236 470 14 17 29 30 31 27 3 -2 -21
-58 -52 -123z m783 37 c17 -11 32 -27 32 -36 0 -9 -13 -98 -29 -197 -17 -100
-35 -231 -41 -291 -11 -108 -21 -146 -40 -146 -16 0 -11 89 12 237 15 95 22
187 22 296 1 86 3 157 6 157 3 0 20 -9 38 -20z m2356 -50 c-23 -43 -44 -64
-44 -45 0 9 41 88 53 104 24 29 18 -10 -9 -59z m-2460 -32 c7 -75 4 -102 -33
-368 -39 -272 -49 -330 -62 -346 -18 -22 -27 0 -22 54 3 26 20 151 38 277 19
127 37 271 40 320 3 50 8 100 11 113 9 44 22 21 28 -50z m223 13 c-6 -69 -24
-111 -38 -90 -10 16 -2 104 13 132 19 37 31 18 25 -42z m-39 -336 c0 -77 -9
-117 -27 -123 -11 -4 -13 14 -9 94 4 103 15 144 29 108 4 -10 7 -46 7 -79z
m120 39 c3 -42 -17 -82 -36 -70 -15 9 -15 71 -1 97 16 30 34 17 37 -27z
m-1263 -51 c-21 -73 -54 -128 -68 -114 -14 14 9 91 46 149 36 57 45 43 22 -35z
m3521 -33 c50 -49 97 -90 104 -90 6 0 47 -25 90 -55 43 -31 109 -69 147 -86
124 -55 174 -83 231 -132 31 -27 84 -63 116 -80 94 -51 101 -65 101 -215 l0
-127 -57 -89 c-32 -49 -58 -95 -58 -101 0 -23 -140 -145 -220 -192 -155 -89
-213 -161 -191 -234 14 -45 46 -72 149 -123 41 -21 72 -43 72 -51 0 -33 -351
-335 -388 -335 -7 0 -23 -18 -37 -39 -19 -31 -42 -48 -102 -77 -43 -20 -83
-43 -89 -52 -10 -14 -13 -13 -25 6 -8 12 -17 22 -20 22 -9 0 -41 -81 -35 -87
3 -3 20 -8 38 -12 l33 -7 -29 -27 c-44 -41 -163 -97 -205 -96 -51 0 -200 34
-214 48 -31 31 7 199 55 243 27 24 145 41 234 33 50 -5 75 -4 71 2 -6 10 -27
16 -134 43 -82 20 -93 64 -42 170 63 133 113 360 128 575 5 71 6 138 2 148 -7
19 -8 19 -26 1 -33 -34 -66 -122 -90 -243 -29 -145 -46 -209 -91 -354 -19 -61
-34 -123 -32 -137 2 -21 8 -14 35 41 18 37 52 126 77 199 25 73 48 135 52 139
3 3 4 -3 1 -14 -3 -11 -9 -45 -12 -75 -13 -101 -103 -339 -139 -369 -13 -11
-19 -11 -32 0 -13 10 -20 10 -42 -3 -15 -8 -48 -18 -74 -21 -26 -4 -82 -25
-125 -47 -58 -29 -103 -44 -172 -56 -109 -18 -214 -54 -256 -89 -49 -39 -25
-50 113 -52 114 -1 172 -12 172 -33 0 -17 -52 -25 -160 -24 -81 1 -117 6 -158
23 -33 13 -75 21 -112 21 -32 0 -66 3 -75 7 -10 3 -41 43 -70 87 -28 45 -76
110 -105 146 -29 36 -72 108 -97 160 -39 86 -54 116 -115 231 -10 20 -25 84
-33 145 -21 157 -22 152 23 159 20 3 64 20 98 37 56 29 66 31 135 26 41 -4
111 -19 156 -34 80 -27 83 -27 103 -9 30 27 24 42 -20 49 -22 3 -40 10 -40 14
0 17 46 51 100 76 66 30 216 70 230 61 5 -3 10 -18 10 -33 0 -30 27 -70 50
-72 31 -4 39 1 60 46 l22 45 -26 28 c-20 21 -26 37 -26 73 0 54 34 105 178
261 49 54 104 125 122 158 36 68 55 70 35 3 -7 -25 -11 -52 -8 -59 2 -8 36
-32 75 -55 103 -62 106 -72 78 -275 -39 -286 -47 -325 -83 -394 -19 -36 -51
-120 -72 -186 -20 -66 -61 -173 -91 -237 -59 -127 -63 -141 -37 -136 26 5 86
126 184 373 79 200 96 252 125 399 42 204 57 239 50 111 -7 -142 -97 -472
-202 -743 -24 -63 -44 -116 -44 -118 0 -2 7 -4 16 -4 19 0 78 123 129 270 35
102 141 482 152 548 7 45 -6 139 -22 155 -10 10 -12 32 -9 78 8 97 12 113 29
99 11 -9 14 -6 17 16 4 32 28 46 28 16 0 -11 7 -25 15 -32 9 -7 15 -29 15 -51
0 -22 5 -39 10 -39 14 0 12 66 -5 195 -22 167 -20 189 25 295 23 51 43 114 47
139 10 74 69 171 104 171 7 0 54 -40 105 -90z m-3602 -209 c7 -10 -37 -73 -91
-130 -40 -41 -63 -52 -63 -29 0 20 60 106 96 138 36 31 49 36 58 21z m3217
-11 c22 -12 26 -60 5 -60 -8 0 -24 12 -35 26 -30 38 -13 57 30 34z m-63 -86
c21 -14 31 -62 16 -77 -17 -17 -74 47 -74 83 0 15 32 12 58 -6z m-278 -13 c0
-58 -58 -152 -170 -276 -40 -44 -83 -97 -97 -117 -27 -40 -53 -50 -53 -20 0
31 72 141 164 251 49 58 100 123 114 144 27 41 42 47 42 18z m2113 9 c83 -12
116 -28 181 -89 75 -70 106 -91 132 -91 29 0 47 -28 64 -95 20 -85 85 -196
171 -291 97 -108 135 -182 149 -290 5 -42 15 -83 20 -90 15 -17 1 -24 -65 -31
-35 -4 -60 -2 -69 6 -7 6 -17 39 -20 74 -11 92 -70 263 -113 327 -45 67 -123
218 -123 239 0 19 -39 61 -58 61 -17 0 -11 -71 19 -225 21 -105 47 -170 103
-264 42 -69 62 -137 76 -261 6 -52 15 -118 21 -145 9 -42 8 -70 -11 -168 -16
-83 -20 -131 -15 -160 21 -116 -3 -164 -106 -216 -80 -40 -135 -41 -178 -6
-56 48 -53 94 9 125 21 11 50 35 64 53 33 42 71 145 86 228 6 35 25 93 42 127
43 90 37 118 -68 314 -47 88 -98 179 -113 203 -15 24 -56 106 -90 182 -88 196
-97 204 -122 116 -10 -35 -13 -100 -12 -243 3 -176 5 -204 28 -280 29 -97 33
-207 10 -310 -18 -83 -18 -80 5 -80 25 0 27 -33 4 -90 -21 -51 -72 -80 -142
-80 -80 0 -93 33 -41 105 19 27 33 60 36 87 6 50 -19 251 -48 388 -11 52 -24
151 -30 220 -12 146 -23 196 -44 204 -17 6 -35 -29 -35 -65 0 -34 -18 -57 -55
-69 -25 -8 -56 -36 -107 -98 -105 -126 -181 -199 -286 -270 -127 -87 -196
-122 -242 -122 -49 0 -75 23 -59 52 11 21 82 57 112 58 38 0 76 31 115 93 24
40 61 81 94 106 30 22 75 67 100 99 33 43 54 61 77 65 36 8 50 44 32 85 -10
21 -8 39 13 106 15 45 31 99 36 122 14 58 105 155 178 190 31 15 73 40 93 55
64 50 80 54 182 39z m-1893 -100 c26 -14 42 -65 30 -96 -14 -35 -48 -28 -77
15 -27 40 -28 54 -7 75 18 19 28 20 54 6z m-3203 -138 c-6 -29 -16 -53 -22
-53 -20 1 -16 69 7 113 21 39 23 41 25 18 2 -14 -3 -49 -10 -78z m-107 -102
c0 -17 -81 -303 -113 -400 -20 -62 -33 -87 -35 -72 -8 51 74 414 104 459 14
23 44 32 44 13z m47 -296 c-9 -154 -17 -194 -42 -194 -12 0 -15 14 -15 74 0
103 36 266 59 266 3 0 2 -66 -2 -146z m5262 -4 c9 -56 -1 -106 -19 -95 -22 14
-41 151 -23 169 14 13 34 -22 42 -74z m326 14 c24 -26 57 -88 70 -131 9 -33
-16 -30 -42 5 -25 34 -73 127 -73 142 0 18 20 11 45 -16z m-3632 -55 c35 -23
63 -32 107 -36 33 -3 63 -9 65 -13 10 -16 -64 -32 -171 -37 l-110 -6 -27 32
c-31 38 -33 48 -10 73 26 29 91 24 146 -13z m3415 -81 c31 -31 3 -64 -44 -52
-39 10 -25 64 16 64 9 0 21 -5 28 -12z m-652 -50 c9 -15 -50 -68 -76 -68 -29
0 -25 14 15 49 39 34 50 37 61 19z m152 -78 c12 -25 22 -62 22 -87 0 -42 -13
-63 -26 -42 -8 13 -44 148 -44 167 0 26 25 6 48 -38z m-4966 -37 c-7 -32 -21
-89 -31 -128 -11 -38 -20 -84 -20 -101 -1 -18 -10 -42 -20 -55 -19 -23 -20
-23 -27 -5 -16 41 45 312 79 354 22 27 31 -5 19 -65z m5552 -15 c38 -77 59
-168 38 -168 -15 0 -26 21 -67 135 -39 107 -41 118 -22 113 6 -2 29 -38 51
-80z m-5712 -18 c2 -19 -2 -25 -17 -25 -17 0 -21 8 -23 45 l-3 45 20 -20 c11
-11 22 -31 23 -45z m6024 -89 c21 -15 50 -40 64 -55 23 -25 24 -29 12 -83 -14
-67 -36 -95 -71 -91 -32 4 -47 34 -67 135 -16 82 -12 123 10 123 7 0 31 -13
52 -29z m-1346 6 c0 -17 -47 -60 -87 -81 -45 -22 -118 -32 -128 -16 -12 19 16
39 106 76 93 37 109 40 109 21z m321 -44 c8 -10 23 -35 32 -57 28 -61 66 -104
103 -118 39 -14 43 -31 14 -55 -65 -56 -34 -165 62 -214 21 -10 52 -19 71 -19
18 0 42 -6 52 -14 18 -13 18 -18 7 -81 -23 -122 -62 -184 -70 -112 -5 44 -17
31 -41 -45 -13 -40 -35 -95 -49 -123 -14 -27 -37 -88 -51 -134 -14 -47 -32
-86 -39 -89 -20 -6 -14 35 24 151 19 60 34 122 32 136 l-3 26 -16 -30 c-9 -16
-44 -104 -79 -195 -74 -198 -110 -280 -121 -280 -15 0 -10 38 17 137 14 51 24
101 22 109 -7 32 -22 12 -38 -48 -36 -137 -169 -428 -195 -428 -10 0 -10 13 0
68 21 109 28 192 17 192 -16 0 -27 -21 -67 -125 -43 -115 -115 -271 -138 -300
-27 -35 -30 4 -8 93 43 167 16 187 -39 30 -31 -89 -105 -245 -133 -280 -24
-30 -40 -22 -33 15 16 77 35 221 30 226 -11 11 -42 -44 -58 -103 -33 -118
-192 -396 -226 -396 -17 0 -11 44 20 135 17 49 30 96 30 104 0 34 -41 -27 -69
-101 -32 -85 -100 -204 -173 -302 -78 -104 -103 -82 -48 44 17 38 30 71 30 75
0 18 -24 -14 -65 -87 -79 -140 -234 -337 -234 -298 -1 8 15 53 35 100 66 159
74 180 64 180 -5 0 -22 -24 -36 -52 -52 -104 -263 -377 -319 -414 -50 -33 -48
-2 4 78 71 109 76 121 56 116 -10 -1 -70 -66 -134 -142 -123 -148 -178 -200
-206 -194 -13 2 1 27 64 113 44 61 81 113 81 118 0 21 -31 0 -90 -62 -83 -89
-183 -163 -255 -190 -63 -24 -65 -24 -65 -12 0 5 25 28 57 51 112 86 203 176
203 203 0 5 -17 -5 -37 -22 -73 -61 -185 -133 -266 -171 -84 -39 -147 -58
-147 -43 0 4 34 31 76 58 72 48 183 150 173 159 -2 3 -49 -22 -103 -54 -105
-63 -200 -104 -223 -96 -9 4 -11 14 -7 31 6 25 5 26 -36 23 -28 -2 -44 1 -47
10 -3 7 23 39 57 72 56 54 68 80 37 80 -7 0 -36 -16 -65 -36 -29 -19 -83 -49
-119 -65 -37 -16 -107 -61 -157 -99 -50 -38 -112 -78 -138 -90 -43 -19 -78
-19 -78 0 0 5 -9 11 -20 15 -32 10 -74 -20 -104 -75 -18 -34 -39 -56 -59 -65
-92 -40 -228 -95 -237 -95 -19 0 -10 26 20 55 16 16 28 31 25 33 -3 3 -61 -23
-129 -57 -163 -82 -188 -78 -79 13 77 62 97 86 74 86 -4 0 -51 -20 -102 -44
-92 -43 -203 -75 -215 -63 -13 12 19 38 95 77 85 44 150 94 139 106 -5 4 -47
-11 -95 -34 -49 -23 -100 -44 -115 -48 -46 -11 -33 17 27 59 57 40 72 64 33
51 -13 -3 -62 -26 -110 -50 -144 -72 -192 -51 -69 30 70 47 115 96 88 96 -8 0
-72 -20 -143 -45 -193 -67 -195 -63 -46 55 57 44 102 86 99 93 -2 7 -23 10
-55 8 -67 -3 -67 7 -7 113 25 43 45 84 45 92 0 7 -15 17 -32 22 l-33 8 0 95
c0 75 5 105 23 150 23 55 23 59 8 103 -9 26 -16 67 -16 91 l0 45 -55 0 c-30 0
-55 2 -55 5 0 3 9 14 21 26 25 25 15 40 -29 41 -40 1 -75 -22 -112 -74 -39
-53 -47 -85 -27 -105 19 -19 37 -9 37 22 0 37 18 75 35 75 27 0 71 -27 89 -55
9 -14 21 -47 26 -73 16 -88 -25 -313 -77 -416 -49 -97 -162 -228 -259 -302
-40 -30 -83 -68 -96 -85 -23 -32 -68 -78 -140 -144 -76 -70 -137 -227 -203
-520 -57 -251 -133 -436 -234 -570 -33 -44 -61 -85 -61 -91 0 -21 -131 -278
-233 -458 -80 -141 -119 -198 -179 -263 -137 -149 -153 -181 -163 -333 -10
-157 -10 -156 -57 -172 -75 -24 -60 -38 41 -38 64 0 104 -5 138 -19 26 -10 66
-22 88 -25 88 -17 186 -87 241 -174 75 -118 235 -291 299 -324 55 -28 125 -80
223 -165 85 -75 92 -77 203 -87 36 -3 76 -15 112 -34 90 -48 282 -70 282 -32
0 23 -52 42 -127 48 -126 9 -68 38 72 36 96 -2 282 -37 320 -61 14 -9 59 -44
100 -78 41 -34 136 -107 210 -161 152 -113 322 -257 390 -330 99 -107 202
-315 260 -529 23 -82 44 -172 47 -200 6 -50 6 -50 -14 -32 -12 10 -35 45 -52
77 -36 67 -116 177 -215 295 -37 44 -93 116 -124 160 -31 44 -83 111 -117 149
-33 38 -74 85 -91 104 -28 32 -34 35 -49 22 -14 -12 -18 -12 -26 1 -4 8 -6 21
-3 30 3 11 -7 23 -29 36 -20 12 -47 44 -66 78 -42 73 -190 225 -220 225 -22 0
-22 0 5 -35 28 -38 18 -45 -26 -20 -14 8 -28 14 -32 15 -23 1 2 -28 90 -98
125 -102 157 -138 226 -244 41 -66 67 -95 103 -118 27 -16 66 -51 88 -77 104
-123 113 -166 16 -79 -94 83 -100 78 -28 -26 79 -115 17 -86 -105 48 -78 86
-118 121 -118 105 0 -6 12 -35 27 -65 15 -31 23 -59 19 -63 -4 -4 -33 6 -64
22 -77 40 -202 166 -236 240 -24 50 -34 60 -80 81 -30 13 -114 38 -187 55
-165 38 -228 60 -299 103 -115 70 -98 67 -312 54 l-193 -11 -70 25 c-232 85
-396 148 -426 163 -73 38 -284 289 -389 465 -50 83 -108 150 -166 190 -11 8
-26 25 -33 38 -14 26 -4 47 57 120 l32 40 -65 -15 c-36 -8 -72 -12 -80 -9 -40
15 2 86 91 157 36 28 63 53 61 55 -5 5 -201 -62 -238 -82 -34 -17 -69 -61 -69
-85 0 -31 -16 -22 -35 21 -38 85 -10 133 216 366 117 121 179 194 238 283 102
152 105 167 21 111 -79 -53 -92 -36 -32 44 66 88 214 307 211 311 -2 2 -39
-26 -82 -61 -119 -97 -121 -92 -19 51 69 97 110 171 99 181 -3 4 -23 -8 -44
-26 -20 -18 -39 -28 -41 -22 -4 13 10 35 113 182 107 151 107 149 39 96 -53
-41 -84 -56 -84 -40 0 3 33 51 74 107 87 121 129 187 123 194 -3 2 -41 -30
-86 -71 -44 -42 -83 -76 -86 -76 -8 0 10 33 71 127 72 112 83 134 82 171 -1
41 39 93 108 139 29 19 56 45 60 57 4 11 30 48 59 81 28 33 65 78 80 100 51
70 136 165 304 340 193 200 254 270 249 285 -2 6 -51 -23 -110 -65 -102 -72
-128 -86 -128 -66 0 5 44 49 97 98 156 140 219 205 206 210 -7 3 -39 -11 -70
-31 -73 -44 -121 -62 -134 -49 -7 7 30 47 107 119 146 135 186 175 180 181 -2
3 -47 -18 -99 -46 -51 -28 -97 -51 -100 -51 -33 0 55 96 196 214 95 80 72 90
-48 20 -152 -88 -208 -90 -117 -5 68 63 224 174 297 209 239 117 254 122 391
122 105 0 129 -8 136 -45 5 -28 31 -25 38 5 7 28 42 50 82 50 40 0 59 10 69
38 9 22 13 24 52 18 48 -8 104 -38 97 -52 -3 -5 -33 -9 -67 -9 -47 0 -59 -3
-51 -12 16 -19 110 -63 136 -63 20 0 71 -21 181 -73 46 -23 117 -135 97 -155
-4 -4 -39 10 -77 31 l-69 38 0 -24 c0 -13 9 -32 20 -42 32 -29 22 -59 -20 -65
-31 -4 -37 -11 -31 -37 0 -5 18 -19 38 -33 l37 -25 -40 -5 c-33 -4 -39 -9 -42
-32 -2 -18 5 -34 24 -51 43 -41 31 -55 -76 -88 -33 -10 -45 -19 -45 -34 0 -14
11 -22 45 -30 59 -14 62 -35 8 -62 -68 -35 -10 -29 67 6 59 27 84 51 53 51 -7
0 -20 4 -28 10 -12 7 -12 12 4 29 10 11 35 26 55 32 60 19 65 28 35 60 -16 17
-24 34 -21 44 7 16 13 19 60 29 36 8 34 23 -5 58 -32 27 -32 28 -14 43 25 19
96 19 122 0 10 -8 32 -15 47 -15 21 0 32 -8 45 -31 9 -17 28 -45 41 -61 18
-22 26 -26 37 -17 8 6 14 19 14 29 0 10 15 49 32 86 32 66 33 73 30 178 -3
120 -2 121 70 207 42 51 50 76 18 59 -11 -6 -52 -40 -92 -75 -114 -101 -126
-82 -43 66 25 43 45 82 45 87 0 6 -9 12 -20 15 -41 11 -12 157 33 165 13 3 22
-7 34 -38 13 -33 18 -38 26 -25 8 15 11 15 29 -2 11 -10 37 -43 58 -73 50 -72
93 -117 162 -169 97 -73 171 -208 185 -341 8 -83 0 -103 -73 -181 -56 -60 -65
-74 -62 -101 3 -28 8 -34 45 -44 23 -7 61 -24 85 -38 46 -27 170 -76 191 -76
30 0 157 266 157 328 0 16 -12 56 -26 87 -24 53 -26 65 -20 139 8 100 18 141
36 141 25 0 69 -78 124 -220 117 -305 128 -328 172 -361 31 -24 49 -29 109
-32 85 -5 104 4 145 60 35 48 39 104 15 206 -17 71 -36 110 -99 198 -45 64
-49 73 -115 274 -67 203 -67 206 20 139 30 -22 66 -43 80 -46 22 -4 28 -12 33
-43 9 -56 154 -337 198 -383 l38 -40 62 7 c93 9 181 55 214 112 36 62 43 118
17 147 -12 12 -28 36 -36 53 -30 58 -121 119 -199 132 -25 5 -45 15 -52 27 -6
11 -34 52 -62 90 -81 111 -146 216 -139 223 17 17 291 -14 335 -38 10 -5 60
-15 112 -21 128 -16 192 -3 246 52 70 69 77 118 27 178 -41 48 -88 71 -182 87
-48 8 -92 20 -98 25 -26 26 111 209 205 274 35 24 45 27 61 17 45 -28 90 2
162 108 69 102 140 175 282 288 66 53 164 138 217 189 102 98 138 114 169 76z
m-4941 -178 c10 -13 8 -19 -13 -39 -17 -16 -29 -42 -37 -82 -15 -80 -23 -104
-35 -106 -29 -8 -10 152 25 210 21 35 41 40 60 17z m5494 -80 c1 -77 -12 -123
-44 -155 -26 -27 -30 -38 -30 -88 0 -32 7 -85 16 -117 9 -33 19 -70 21 -83 5
-19 -12 -41 -84 -115 -71 -72 -100 -111 -133 -177 -61 -121 -139 -258 -152
-266 -7 -5 -9 4 -4 30 4 21 3 36 -3 36 -21 0 -66 -71 -138 -214 -82 -165 -149
-270 -301 -476 -55 -74 -98 -137 -95 -140 14 -15 247 262 355 423 34 51 63 86
65 80 12 -34 -244 -457 -351 -581 -66 -77 -57 -87 15 -17 73 72 158 175 224
272 47 68 73 86 59 40 -8 -26 -119 -215 -181 -309 -48 -73 -230 -293 -286
-346 -32 -31 -41 -34 -131 -42 -103 -10 -172 -25 -181 -39 -8 -13 38 -22 87
-16 23 3 49 2 57 -4 21 -14 -49 -93 -236 -263 -225 -206 -229 -225 -54 -239
83 -6 114 -14 178 -42 43 -20 122 -47 177 -62 54 -14 155 -47 225 -72 257 -93
286 -103 304 -103 30 0 19 15 -35 45 -61 35 -72 55 -31 55 44 0 129 -55 207
-134 125 -128 267 -223 456 -306 107 -47 133 -66 127 -92 -3 -12 5 -25 23 -38
15 -11 47 -56 70 -101 23 -45 67 -108 96 -140 34 -37 54 -68 54 -83 0 -13 11
-40 25 -60 32 -47 34 -110 5 -126 -12 -6 -41 -10 -67 -8 l-46 3 -29 70 c-16
39 -35 98 -42 133 -8 34 -26 81 -41 105 -43 66 -165 179 -231 214 -32 17 -87
54 -122 82 -35 28 -70 51 -78 51 -26 0 -68 26 -150 94 -57 48 -127 91 -256
157 -184 93 -277 133 -248 106 8 -8 63 -39 121 -70 124 -64 149 -79 149 -88 0
-14 -137 -31 -205 -27 -59 4 -90 14 -202 66 -142 66 -230 95 -265 90 -22 -3
-22 -4 10 -35 18 -17 118 -75 222 -128 147 -75 198 -107 230 -141 49 -53 49
-79 1 -111 -46 -31 -63 -29 -86 10 -34 58 -129 149 -186 177 -30 16 -84 36
-119 45 -35 9 -112 36 -171 60 -101 41 -232 78 -372 105 -75 15 -117 52 -158
138 -17 37 -36 78 -42 90 -6 13 -58 73 -116 133 -57 61 -102 111 -100 113 2 1
44 26 93 55 138 81 270 176 360 261 46 43 118 101 162 130 166 109 389 314
524 480 42 52 117 140 165 195 48 55 118 143 156 195 37 52 111 145 165 205
53 61 117 142 142 180 25 39 60 83 79 98 18 16 40 42 48 57 22 43 122 340 151
450 33 125 43 148 63 155 49 15 91 114 91 215 1 39 2 42 12 25 7 -11 12 -42
12 -70z m126 -33 c0 -33 -20 -74 -39 -80 -11 -4 -13 5 -8 43 10 72 47 102 47
37z m-4440 -150 c0 -40 -23 -83 -36 -69 -10 9 -10 66 -1 90 3 9 13 17 22 17
11 0 15 -11 15 -38z m-1274 -179 c-102 -313 -127 -456 -146 -818 -6 -115 -15
-214 -19 -218 -17 -17 -31 58 -31 157 0 320 142 992 219 1036 28 16 24 -14
-23 -157z m3514 104 c0 -21 -47 -60 -64 -54 -23 9 -20 33 6 51 27 19 58 21 58
3z m-2185 -155 c-5 -40 -12 -56 -31 -68 -13 -9 -30 -14 -38 -11 -18 7 -14 24
35 147 l34 85 3 -50 c2 -27 1 -74 -3 -103z m2045 38 c0 -10 -14 -35 -31 -55
-25 -28 -38 -35 -68 -35 -36 0 -101 31 -101 49 0 16 24 29 80 44 82 22 120 22
120 -3z m-1855 -177 c-4 -32 -11 -66 -16 -75 -13 -24 -39 -23 -39 2 0 26 43
130 54 130 4 0 5 -26 1 -57z m4117 22 c-5 -41 -38 -101 -84 -151 -70 -76 -91
-49 -38 51 62 119 130 174 122 100z m-3902 -90 c0 -32 -4 -45 -14 -45 -17 0
-27 37 -19 68 10 41 33 26 33 -23z m-320 -71 c-5 -12 -13 -25 -19 -28 -20 -13
-22 16 -5 67 l18 52 7 -34 c4 -19 3 -45 -1 -57z m175 -51 c-7 -66 -32 -112
-54 -99 -9 6 -10 21 -5 50 11 69 34 149 47 165 10 12 13 9 15 -20 2 -19 1 -62
-3 -96z m241 35 c-8 -38 -29 -63 -46 -53 -23 14 8 85 37 85 12 0 14 -7 9 -32z
m99 -108 c10 -15 -13 -75 -36 -96 -16 -14 -22 -15 -28 -5 -8 12 3 83 15 103 7
11 42 10 49 -2z m-265 -73 c-6 -30 -17 -63 -25 -73 -26 -34 -20 74 7 116 26
43 33 27 18 -43z m2538 15 c3 -16 -2 -22 -15 -22 -12 0 -26 -13 -36 -35 -10
-20 -29 -40 -44 -46 -34 -13 -100 -2 -107 17 -6 17 23 34 58 34 14 0 35 9 46
20 11 11 27 20 35 20 8 0 20 9 27 20 16 25 32 21 36 -8z m-2098 -140 c0 -34
-23 -68 -38 -58 -13 8 -16 68 -5 79 3 4 15 7 25 7 13 0 18 -8 18 -28z m-152
-95 c5 -27 -45 -127 -64 -127 -13 0 -15 6 -9 37 15 81 63 140 73 90z m3335
-76 c-32 -82 -51 -97 -24 -18 31 87 43 113 48 101 2 -7 -8 -44 -24 -83z
m-3453 -44 c0 -12 -11 -46 -25 -75 -20 -43 -32 -56 -67 -72 -46 -21 -88 -26
-88 -10 0 21 159 192 172 184 4 -3 8 -15 8 -27z m168 -107 c-6 -80 -30 -114
-85 -118 -26 -2 -44 2 -52 12 -18 22 -6 46 22 46 27 0 56 29 80 83 26 57 40
47 35 -23z m-763 -25 c0 -12 -8 -21 -20 -23 -28 -3 -49 13 -42 33 10 25 62 16
62 -10z m413 -91 c27 -19 28 -31 3 -39 -29 -9 -71 12 -71 35 0 25 35 27 68 4z
m2902 3 c0 -21 -60 -137 -71 -137 -12 0 -5 28 26 98 22 49 45 69 45 39z
m-4032 -71 c-25 -23 -82 -61 -128 -85 l-83 -44 7 27 c3 14 2 26 -3 26 -12 0
-98 -69 -130 -104 -27 -29 -51 -34 -51 -10 0 22 93 108 137 127 21 9 65 27 98
40 33 14 87 36 120 50 32 14 64 23 69 20 5 -4 -11 -25 -36 -47z m-662 -43 c19
-45 18 -63 -6 -63 -25 0 -40 36 -40 93 1 40 1 41 16 22 9 -11 22 -34 30 -52z
m2106 -126 c72 -57 108 -137 62 -137 -38 0 -143 133 -130 166 7 17 14 14 68
-29z m2348 12 c-12 -41 -88 -169 -100 -169 -14 0 35 112 78 178 21 32 32 27
22 -9z m-4209 -98 c-6 -10 -17 -23 -25 -30 -26 -22 -76 -168 -87 -254 -6 -52
-23 -114 -45 -167 -44 -107 -48 -113 -59 -111 -18 3 -4 75 31 162 19 47 39
114 45 150 15 99 113 290 140 274 6 -4 5 -13 0 -24z m79 7 c0 -14 -50 -68 -62
-68 -18 0 -6 40 18 59 30 24 44 27 44 9z m3276 -202 c10 -39 -14 -95 -42 -102
-19 -5 -32 0 -55 22 -16 15 -29 31 -29 36 0 13 82 68 101 68 11 0 21 -10 25
-24z m-3306 -26 c0 -18 -70 -228 -95 -285 -14 -30 -29 -55 -35 -55 -16 0 -12
39 15 124 14 45 30 100 35 123 14 57 80 134 80 93z m-314 -159 c-10 -117 -45
-188 -60 -125 -14 56 22 194 52 194 12 0 14 -11 8 -69z m3974 15 c0 -33 -142
-196 -171 -196 -17 0 6 32 66 90 31 30 63 70 70 88 14 32 35 44 35 18z m-260
-193 c0 -3 -10 -20 -23 -37 -13 -17 -27 -39 -30 -49 -7 -19 -28 -19 -34 0 -3
7 12 30 33 52 33 38 54 51 54 34z m-3612 -279 c-3 -19 -34 -41 -43 -32 -4 4
-4 16 0 27 8 25 48 29 43 5z m712 -23 c0 -19 -52 -72 -87 -90 -19 -10 -23 -9
-23 4 0 25 27 71 55 94 29 22 55 18 55 -8z m-822 -57 c12 -4 22 -11 22 -17 0
-12 -79 -87 -92 -87 -15 0 -9 78 8 94 17 17 27 19 62 10z m628 -98 c9 -24 -77
-139 -92 -123 -10 10 19 87 42 112 26 28 42 32 50 11z m1055 -102 c10 -13 10
-17 -2 -25 -19 -12 -56 -11 -64 1 -9 15 13 40 35 40 10 0 23 -7 31 -16z m3512
-44 c112 -30 187 -65 187 -88 0 -25 -47 -72 -72 -72 -10 0 -47 27 -83 60 -35
32 -76 62 -92 65 -58 12 -78 21 -81 38 -5 24 43 23 141 -3z m-5413 -79 c0 -14
-72 -100 -139 -166 -34 -33 -61 -55 -61 -50 0 20 54 91 119 158 63 64 81 77
81 58z m890 -19 c0 -5 -17 -35 -38 -68 -65 -99 -115 -129 -71 -42 29 58 77
118 95 118 8 0 14 -4 14 -8z m3093 -63 c45 -37 48 -59 8 -59 -34 0 -61 30 -61
67 0 30 8 29 53 -8z m1813 10 c84 -26 144 -58 144 -77 0 -11 -8 -13 -32 -8
-46 9 -179 64 -209 87 l-24 19 26 0 c15 0 58 -9 95 -21z m399 -159 c107 -69
136 -78 169 -57 28 19 54 14 136 -28 79 -39 146 -93 186 -147 19 -28 60 -64
98 -88 70 -44 150 -124 143 -143 -2 -7 -13 -13 -25 -15 -15 -2 -47 21 -112 82
-111 104 -197 169 -272 207 -31 16 -73 43 -92 60 -29 25 -39 28 -55 20 -39
-21 -76 -11 -176 50 -55 33 -124 71 -152 84 -38 17 -51 28 -47 39 15 39 67 22
199 -64z m-1757 46 c23 -23 8 -48 -25 -41 -123 27 -156 73 -44 62 30 -3 61
-13 69 -21z m2568 -595 c34 -49 64 -152 64 -216 0 -51 -1 -54 -30 -60 -44 -10
-126 4 -153 25 l-22 18 25 10 c14 6 40 16 58 22 36 14 46 50 13 50 -28 0 -72
62 -78 110 -6 46 1 49 35 18 l25 -23 -6 41 c-4 22 -4 43 -1 46 12 13 47 -7 70
-41z m-7892 -1507 c10 -25 7 -82 -4 -89 -17 -11 -40 15 -40 45 0 38 9 60 25
60 7 0 16 -7 19 -16z m1212 -179 c15 -20 24 -38 21 -42 -10 -9 -67 18 -77 38
-28 51 18 54 56 4z m-980 -58 c18 -16 25 -30 21 -40 -9 -24 -25 -21 -58 13
-48 47 -15 71 37 27z m2530 -612 c119 -45 221 -113 330 -220 103 -102 176
-201 193 -262 5 -18 37 -79 71 -134 34 -55 71 -123 82 -152 11 -28 46 -102 79
-163 76 -143 109 -231 116 -312 5 -54 11 -71 35 -95 32 -34 33 -38 16 -55 -34
-34 -92 19 -104 94 -3 25 -17 58 -30 74 -42 50 -94 172 -109 259 -12 68 -27
107 -86 219 -98 185 -160 288 -204 340 -44 51 -249 223 -397 334 -60 44 -108
85 -108 89 0 16 49 9 116 -16z m444 -183 c58 -56 73 -82 48 -82 -15 0 -128
113 -128 128 0 24 22 11 80 -46z m-921 -218 c23 -16 24 -17 6 -30 -10 -8 -29
-14 -41 -14 -26 0 -40 -15 -58 -66 -16 -49 -42 -53 -39 -6 0 18 9 42 18 52 16
18 15 20 -18 33 -49 21 -53 35 -15 46 43 13 115 5 147 -15z m1223 -143 c39
-46 94 -135 110 -179 11 -27 10 -34 -5 -49 -13 -13 -22 -15 -35 -7 -20 12
-132 227 -132 255 0 30 26 22 62 -20z m-1152 -16 c35 -18 52 -46 40 -65 -8
-12 -18 -10 -65 13 -51 25 -65 43 -48 60 11 11 42 8 73 -8z m108 -97 c19 -19
-6 -38 -49 -38 -44 0 -60 17 -34 37 23 16 67 17 83 1z m257 -132 c85 -40 167
-103 199 -155 13 -21 47 -52 75 -70 28 -18 60 -48 72 -67 26 -43 85 -216 94
-277 6 -39 4 -47 -13 -56 -41 -22 -142 -4 -142 25 0 8 20 23 45 34 25 11 45
22 45 25 0 15 -76 194 -93 220 -83 122 -260 264 -332 265 -25 1 -35 9 -60 47
-16 26 -31 50 -33 54 -5 13 69 -11 143 -45z m758 -598 c43 -87 46 -252 6 -317
-22 -36 -38 -36 -56 0 -13 25 -19 313 -7 344 10 26 38 13 57 -27z m114 -366
c-14 -143 -90 -210 -138 -121 -8 15 -2 27 30 59 22 23 48 62 57 88 10 26 22
53 27 60 19 24 30 -17 24 -86z"/>
<path d="M5455 12459 c-35 -64 -55 -139 -55 -206 0 -46 12 -74 26 -60 3 2 9
43 14 90 6 47 15 99 21 114 23 57 38 113 30 113 -4 0 -20 -23 -36 -51z"/>
<path d="M5587 12476 c-29 -43 -67 -153 -66 -189 0 -17 3 -25 6 -17 3 8 23 57
45 109 41 97 49 149 15 97z"/>
<path d="M5694 12409 c-43 -86 -74 -177 -74 -217 l1 -37 15 28 c21 38 97 268
90 274 -2 3 -17 -19 -32 -48z"/>
<path d="M5190 12328 c-21 -47 -25 -94 -10 -118 9 -13 11 -13 20 0 10 17 30
100 30 130 0 37 -21 31 -40 -12z"/>
<path d="M5099 12333 c-11 -30 -4 -73 11 -73 6 0 10 23 10 50 0 56 -6 63 -21
23z"/>
<path d="M4562 12125 c-66 -18 -101 -36 -178 -91 -164 -116 -238 -274 -200
-425 38 -148 68 -184 223 -274 l83 -48 137 5 c171 6 191 14 333 136 134 114
154 149 155 257 0 65 -5 90 -24 130 -41 85 -234 258 -332 299 -55 23 -138 27
-197 11z m180 -174 c38 -32 90 -61 112 -61 37 0 66 -44 82 -125 28 -139 28
-141 0 -188 -48 -83 -140 -147 -251 -174 -58 -14 -78 -15 -137 -5 -90 16 -185
60 -244 113 -47 44 -91 120 -79 139 11 17 42 11 73 -15 35 -29 49 -31 80 -9
22 15 22 17 7 41 -24 36 -15 65 29 89 28 16 48 39 72 85 68 128 180 177 256
110z"/>
<path d="M4640 11793 c-16 -21 -19 -35 -14 -68 8 -57 -7 -67 -68 -48 -26 9
-54 13 -62 10 -34 -13 -50 -173 -21 -214 20 -28 62 -37 136 -28 50 6 70 15
121 53 68 51 118 121 118 164 0 74 -88 158 -165 158 -14 0 -32 -11 -45 -27z"/>
<path d="M5360 12120 c-14 -4 -49 -8 -77 -9 -61 -1 -67 -13 -33 -68 24 -41 49
-53 100 -51 22 1 46 -4 52 -10 31 -31 64 8 54 63 -6 32 -47 86 -63 84 -4 -1
-19 -5 -33 -9z"/>
<path d="M5235 11840 c-21 -23 -34 -88 -34 -181 -1 -85 -25 -121 -146 -221
-115 -95 -123 -105 -104 -123 16 -15 141 -55 174 -55 22 0 65 42 126 120 29
38 49 34 49 -10 0 -44 17 -45 44 -3 48 72 88 217 100 366 l7 77 -71 0 c-66 0
-71 2 -80 25 -12 30 -40 32 -65 5z m132 -207 c-8 -66 -23 -103 -43 -103 -14 0
-15 7 -10 41 16 98 64 154 53 62z"/>
<path d="M5562 11813 c-7 -3 -19 -17 -26 -31 -15 -30 -96 -333 -96 -361 0 -23
33 -53 51 -46 22 8 36 36 54 109 9 36 32 103 51 149 55 133 41 210 -34 180z"/>
<path d="M5727 11762 c-21 -23 -79 -149 -106 -229 -25 -74 -26 -112 -6 -139
15 -19 15 -19 34 3 10 12 22 39 26 60 3 21 26 88 51 150 45 114 55 173 31 173
-8 0 -21 -8 -30 -18z"/>
<path d="M5817 11710 c-15 -12 -27 -30 -27 -41 0 -11 -13 -48 -29 -84 -38 -84
-46 -120 -31 -155 20 -48 58 -50 78 -4 16 34 28 30 58 -21 24 -42 28 -45 44
-30 23 21 28 19 44 -19 16 -38 42 -51 86 -41 39 8 45 20 26 47 -9 12 -16 30
-16 39 0 21 32 49 57 49 11 0 30 11 43 25 31 33 20 65 -33 109 -35 28 -45 31
-100 29 -34 -1 -76 -4 -94 -8 l-32 -6 2 63 c2 61 1 63 -24 66 -14 2 -37 -6
-52 -18z"/>
<path d="M4795 10829 c-9 -13 62 -80 107 -102 20 -9 51 -17 70 -17 l33 1 -49
45 c-74 68 -145 100 -161 73z"/>
<path d="M5017 10833 c-13 -12 -7 -40 12 -57 16 -15 20 -15 31 -1 20 24 -22
80 -43 58z"/>
<path d="M4700 10767 c0 -8 24 -33 53 -55 90 -70 138 -81 106 -24 -29 53 -159
118 -159 79z"/>
<path d="M4487 10753 c-13 -13 -7 -21 25 -32 18 -6 78 -38 133 -71 56 -33 107
-60 113 -60 20 0 34 38 22 61 -25 45 -266 130 -293 102z"/>
<path d="M3950 10663 c1 -45 44 -65 233 -110 167 -38 235 -48 272 -39 33 8 31
22 -5 41 -37 19 -40 45 -5 45 14 0 58 -11 97 -25 87 -30 108 -32 108 -5 0 50
-120 100 -240 100 -75 0 -102 -15 -93 -50 3 -12 0 -22 -9 -25 -22 -9 -160 22
-252 56 -93 34 -106 35 -106 12z"/>
<path d="M5324 10520 c-40 -9 -54 -18 -54 -35 0 -19 65 -30 96 -16 22 10 42
37 33 45 -11 10 -48 13 -75 6z"/>
<path d="M4580 10451 c0 -5 15 -20 33 -33 17 -12 58 -47 90 -76 32 -30 74 -60
93 -68 46 -19 203 -19 230 0 18 14 18 15 -9 25 -16 6 -61 11 -101 11 -90 0
-125 12 -151 52 -33 52 -185 124 -185 89z"/>
<path d="M3870 10064 c0 -4 25 -33 55 -66 30 -32 55 -63 55 -68 0 -17 -45 -40
-91 -46 -40 -5 -95 7 -171 41 -12 4 -18 3 -18 -5 0 -7 8 -19 18 -26 16 -13 16
-15 -3 -30 -14 -11 -31 -14 -57 -10 -21 3 -56 9 -78 12 -37 6 -41 5 -57 -27
-10 -18 -29 -43 -42 -56 -25 -24 -23 -53 4 -53 9 0 46 16 84 35 37 19 81 35
97 35 l29 -1 -30 -27 c-17 -15 -44 -37 -60 -50 -29 -22 -29 -23 -5 -16 14 3
57 24 95 47 162 94 167 96 260 106 158 17 300 23 327 12 30 -11 58 -57 58 -94
0 -28 26 -43 46 -26 17 14 18 59 3 93 -14 30 -46 41 -159 56 -121 16 -146 25
-230 89 -92 71 -130 92 -130 75z"/>
<path d="M3904 9790 c-18 -4 -67 -27 -110 -52 -44 -25 -116 -64 -161 -86 -83
-42 -108 -62 -76 -62 16 1 68 27 313 156 26 14 84 30 135 38 l90 14 -80 0
c-44 0 -94 -3 -111 -8z"/>
<path d="M3470 9671 c-37 -12 -108 -49 -115 -62 -4 -5 -4 -13 -1 -16 8 -8 131
45 159 68 21 18 21 18 2 18 -11 0 -31 -4 -45 -8z"/>
<path d="M2262 9745 c-19 -67 -61 -320 -67 -402 -14 -177 39 36 70 284 17 137
16 188 -3 118z"/>
<path d="M2540 7928 c0 -51 7 -78 21 -78 15 0 10 85 -6 106 -13 18 -14 16 -15
-28z"/>
<path d="M1898 7785 c-57 -108 -159 -398 -145 -412 8 -8 25 29 63 138 19 56
51 140 70 186 36 86 44 148 12 88z"/>
<path d="M2598 7658 c-8 -13 -20 -39 -28 -58 -7 -19 -26 -52 -41 -72 -31 -40
-38 -78 -14 -78 22 0 135 178 135 214 0 24 -35 20 -52 -6z"/>
<path d="M1706 7263 c-16 -49 -37 -235 -43 -370 -5 -132 -4 -155 11 -177 36
-56 41 -36 41 181 0 115 4 247 8 296 5 56 5 87 -2 87 -5 0 -12 -8 -15 -17z"/>
<path d="M1892 7173 c-31 -60 -102 -347 -102 -414 0 -24 4 -30 17 -27 10 2 23
14 29 28 13 28 77 420 70 427 -2 3 -9 -4 -14 -14z"/>
<path d="M2016 7109 c-19 -46 -46 -210 -46 -276 0 -46 14 -57 24 -20 8 26 45
331 41 335 -1 2 -10 -16 -19 -39z"/>
<path d="M1587 7057 c-8 -22 -9 -352 -1 -384 16 -59 24 -9 23 140 -1 178 -9
274 -22 244z"/>
<path d="M2150 6891 c-5 -11 -10 -32 -10 -46 0 -20 4 -26 18 -23 12 2 18 15
20 46 3 44 -10 56 -28 23z"/>
<path d="M4737 8982 c-34 -63 -49 -102 -37 -102 10 0 64 92 75 128 11 39 -11
24 -38 -26z"/>
<path d="M5317 8978 c-18 -40 -23 -88 -8 -88 15 0 33 56 29 91 l-4 34 -17 -37z"/>
<path d="M4862 8523 c-5 -10 -19 -54 -31 -97 -12 -44 -32 -100 -45 -125 -13
-25 -33 -65 -45 -89 -23 -46 -25 -102 -3 -110 26 -8 167 348 160 407 -4 30
-23 38 -36 14z"/>
<path d="M6242 8039 c-26 -13 -59 -43 -83 -74 -61 -81 -50 -96 36 -45 46 28
85 38 85 24 0 -4 -12 -28 -27 -55 -14 -27 -23 -52 -20 -56 4 -3 24 -1 46 5 41
13 81 16 81 6 0 -3 -9 -17 -20 -31 -35 -44 -27 -57 30 -49 58 8 73 -7 46 -46
-29 -41 -21 -57 32 -60 40 -3 47 -6 50 -25 2 -13 10 -23 19 -23 21 0 83 64 83
85 0 17 -17 18 -80 3 -31 -7 -22 46 15 89 50 58 47 73 -15 73 -54 0 -62 10
-35 46 8 10 15 29 15 42 0 26 -31 30 -70 7 -14 -8 -31 -14 -37 -15 -20 0 -15
54 7 83 11 14 20 28 20 31 0 3 -30 6 -67 6 -49 0 -80 -6 -111 -21z"/>
<path d="M5973 7669 c-36 -10 -67 -48 -61 -75 2 -10 18 -22 37 -29 19 -6 38
-21 42 -33 7 -19 53 -55 84 -65 5 -2 -12 -28 -38 -58 -26 -29 -46 -58 -44 -64
9 -27 215 -5 225 24 4 11 -4 13 -35 9 -40 -6 -73 5 -73 23 0 5 20 29 45 53 50
49 56 76 22 99 -13 8 -28 30 -33 48 -17 59 -97 91 -171 68z"/>
<path d="M3802 6581 c-59 -47 -97 -97 -82 -106 6 -4 23 1 38 11 36 24 132 115
132 125 0 21 -42 6 -88 -30z"/>
<path d="M2687 6568 c-38 -14 -29 -30 24 -46 81 -24 103 -48 47 -54 -24 -2
-32 -7 -29 -18 2 -8 6 -28 9 -45 3 -16 16 -40 29 -53 23 -21 24 -24 9 -47 -21
-32 -21 -33 19 -49 40 -17 43 -26 15 -51 -55 -50 24 -145 123 -145 31 0 20 39
-18 62 -47 27 -42 50 12 63 64 16 73 31 29 49 -20 8 -36 20 -36 26 0 6 19 19
43 29 l42 18 -35 21 c-19 12 -38 22 -42 22 -15 0 -8 21 10 27 33 12 43 25 31
39 -12 15 -4 34 15 34 27 0 116 31 116 41 0 14 -91 55 -165 74 -66 17 -205 19
-248 3z"/>
<path d="M3914 6435 c-57 -28 -109 -78 -99 -94 9 -15 87 27 145 79 37 32 41
39 24 40 -11 0 -43 -11 -70 -25z"/>
<path d="M4053 6340 c-41 -25 -123 -104 -123 -118 0 -20 16 -14 77 31 32 24
66 47 76 50 17 6 24 42 9 51 -5 3 -22 -3 -39 -14z"/>
<path d="M2212 6127 c-25 -26 -40 -72 -34 -99 6 -29 18 -21 31 21 6 22 25 54
42 70 30 31 30 31 7 31 -14 0 -34 -11 -46 -23z"/>
<path d="M2079 5883 c-5 -16 -17 -33 -26 -40 -20 -15 -10 -43 15 -43 26 0 72
38 72 59 0 17 -29 51 -44 51 -3 0 -11 -12 -17 -27z"/>
<path d="M2417 2093 c-14 -13 -6 -53 12 -63 42 -22 211 -5 185 19 -10 9 -155
51 -177 51 -8 0 -17 -3 -20 -7z"/>
<path d="M5410 5292 c0 -14 36 -22 95 -22 64 1 42 15 -37 25 -37 5 -58 4 -58
-3z"/>
</g>
</svg>
