<svg version="1.1" xmlns="http://www.w3.org/2000/svg" xmlns:xlink="http://www.w3.org/1999/xlink" width="838.000000pt" height="1280.000000pt" viewBox="0,0,167.59375,256"><g fill="#ffffff" fill-rule="nonzero" stroke="none" stroke-width="1" stroke-linecap="butt" stroke-linejoin="miter" stroke-miterlimit="10" stroke-dasharray="" stroke-dashoffset="0" font-family="none" font-weight="none" font-size="none" text-anchor="none" style="mix-blend-mode: normal"><g transform="translate(0.00114,-0.00973) scale(0.2,0.2)"><g transform="translate(0,1280) scale(0.1,-0.1)"><path d="M5625,12784c-38,-8 -112,-35 -163,-60c-74,-36 -107,-59 -167,-120c-40,-41 -90,-81 -109,-89c-19,-8 -81,-22 -138,-30c-146,-22 -211,-41 -303,-86c-56,-27 -116,-46 -201,-63c-124,-25 -295,-71 -327,-88c-9,-5 -45,-34 -79,-64c-71,-64 -89,-74 -190,-110c-175,-63 -301,-144 -473,-304c-60,-56 -157,-138 -215,-183c-131,-101 -370,-334 -503,-491c-56,-66 -141,-165 -190,-220c-93,-107 -215,-282 -267,-381c-17,-33 -37,-64 -44,-70c-18,-14 -32,-44 -40,-84c-3,-18 -21,-55 -40,-81c-19,-27 -44,-65 -54,-87c-11,-21 -32,-49 -46,-62c-14,-14 -26,-30 -26,-37c0,-7 -29,-55 -64,-106c-74,-109 -96,-150 -96,-177c0,-11 -18,-40 -39,-65c-69,-79 -178,-298 -195,-391c-4,-21 -19,-52 -32,-68c-47,-55 -113,-215 -99,-238c3,-4 -8,-32 -24,-61c-16,-29 -42,-96 -57,-148c-25,-88 -26,-102 -20,-220c6,-111 5,-132 -14,-185c-12,-34 -25,-109 -30,-180c-6,-66 -19,-155 -30,-197c-11,-43 -20,-99 -20,-125c0,-26 -18,-119 -40,-208c-69,-279 -71,-291 -80,-750c-11,-522 -25,-747 -66,-1045c-12,-93 -14,-164 -8,-368l7,-252l-115,-119c-161,-165 -261,-321 -331,-518c-42,-115 -145,-462 -173,-580c-14,-59 -43,-160 -64,-223c-22,-63 -44,-146 -50,-185c-8,-53 -25,-99 -71,-190c-80,-155 -101,-185 -220,-311c-116,-123 -129,-154 -111,-242c7,-32 28,-89 47,-129c19,-39 35,-76 35,-80c0,-13 64,-72 138,-128c36,-26 77,-69 93,-95c16,-27 45,-60 64,-75c20,-14 44,-43 55,-64c26,-51 78,-96 154,-130c52,-23 69,-37 90,-73c14,-25 26,-53 26,-64c0,-65 108,-145 325,-240c299,-131 328,-138 635,-153c247,-13 260,-17 465,-158c43,-30 101,-60 133,-69c72,-21 87,-34 108,-96c21,-64 42,-76 208,-124l131,-39l100,-96c73,-70 113,-101 150,-114c70,-26 121,-60 189,-124c97,-93 101,-111 45,-227c-29,-59 -41,-136 -24,-152c24,-24 226,7 278,42c42,29 47,62 26,186c-20,118 -24,190 -9,190c14,0 56,-88 90,-189c35,-105 38,-178 15,-396c-20,-184 -20,-180 18,-220c39,-42 143,-105 173,-105c36,0 71,37 109,113c37,75 56,155 74,319c6,54 20,121 30,149c39,100 36,158 -14,329c-9,31 -19,126 -24,218c-12,208 -13,209 -194,438c-17,23 -61,83 -97,135c-36,52 -112,142 -170,200l-105,106l-110,36c-158,52 -345,96 -450,107c-95,9 -134,16 -280,49c-50,11 -154,25 -230,31c-445,35 -431,31 -509,150c-31,48 -107,133 -210,235c-222,222 -336,294 -594,381c-59,19 -111,39 -116,44c-17,17 6,81 56,155c50,73 50,76 33,95c-18,20 -18,22 -1,57c19,39 182,269 198,279c5,3 16,0 25,-8c14,-12 16,-10 10,13c-7,28 17,71 85,151c31,37 102,164 185,332c14,27 28,73 33,102c11,66 32,106 85,166c24,26 64,89 90,140c63,122 114,197 180,262c127,128 286,201 485,225c52,7 108,18 124,26c21,11 33,12 48,4c30,-16 390,7 478,31c20,5 65,32 100,60c50,38 85,56 150,76c47,14 160,50 253,81l167,55l93,95c139,143 126,137 238,107c52,-14 113,-36 137,-50c85,-50 151,-68 239,-66c46,1 84,-2 88,-8c11,-18 120,-10 205,15c93,28 120,31 138,13c20,-20 14,-45 -19,-70l-30,-24l80,-87c81,-86 94,-111 89,-157c-2,-17 4,-27 22,-37c14,-6 51,-39 82,-71c31,-33 76,-68 100,-79c84,-40 234,-92 272,-95c35,-3 40,0 46,21l5,24l13,-27l12,-27l98,7l98,7l36,-32c26,-23 45,-31 72,-31c21,0 68,-7 107,-16c79,-18 99,-37 99,-99c0,-60 28,-105 80,-132c78,-39 103,-39 160,-3c27,17 64,48 81,68l32,36l-5,108l-6,108h50c68,0 107,-19 181,-88c65,-60 113,-92 140,-92c8,0 25,-11 38,-25c15,-15 35,-25 53,-25c59,0 239,-107 345,-205c78,-73 117,-135 156,-253c58,-175 75,-192 194,-192c81,0 119,14 127,46c3,12 -4,62 -16,111c-25,99 -79,202 -147,274c-24,25 -43,51 -43,56c0,6 -21,34 -47,63c-40,44 -45,55 -35,71c10,16 5,24 -42,64c-29,26 -59,58 -67,71c-9,17 -63,50 -173,106c-173,86 -226,120 -226,144c0,27 28,26 100,-6c40,-18 93,-38 119,-46c57,-17 235,-115 270,-148c27,-25 146,-86 169,-86c7,0 32,-18 56,-40c24,-22 64,-49 90,-61c26,-11 52,-31 58,-43c6,-15 19,-24 33,-24c34,0 105,-51 128,-92c10,-19 27,-44 36,-55c31,-35 34,-45 41,-154c12,-179 37,-203 218,-209c136,-5 216,4 238,26c23,23 13,98 -26,199c-21,55 -41,91 -62,108c-17,14 -39,42 -48,61c-44,86 -185,232 -240,249c-14,4 -41,22 -60,39c-103,92 -281,198 -370,220c-62,16 -156,58 -283,127c-44,24 -77,34 -145,41c-49,5 -103,18 -125,29c-34,17 -343,112 -477,146c-30,7 -129,18 -220,23c-109,6 -189,16 -235,29c-140,40 -311,103 -332,124c-48,44 -39,56 211,302c232,228 332,339 510,563c183,231 288,390 412,624c40,75 85,155 100,178l27,40l-19,42l-18,41l49,41c84,68 148,140 185,205c71,125 91,152 137,184c83,57 120,96 156,165c48,91 57,129 41,167c-16,38 -18,115 -3,115c7,0 27,-9 45,-21c48,-29 65,-22 83,35c13,41 23,53 56,70c73,38 94,125 55,228c-15,39 -20,77 -20,144c0,155 -44,286 -133,396c-74,92 -111,148 -207,313c-178,306 -265,417 -361,462c-25,12 -54,34 -64,50c-31,48 -206,222 -301,298c-102,83 -146,127 -232,235c-80,101 -255,270 -328,315c-32,21 -76,53 -96,73l-37,35l-75,-7c-45,-4 -77,-3 -80,3c-14,22 110,92 252,143c114,40 338,158 395,208c25,22 59,61 76,87c30,45 31,50 31,152c-1,137 -19,237 -69,375c-22,61 -42,123 -45,137c-3,14 -26,53 -51,85c-25,32 -48,69 -52,82c-3,13 -3,65 0,115c7,120 -5,183 -57,292c-54,115 -82,145 -230,257c-162,122 -218,148 -316,147c-41,0 -106,-7 -145,-15zM5974,12656c48,-48 80,-101 71,-116c-12,-20 -25,-9 -55,43c-16,29 -41,64 -55,77c-14,13 -25,27 -25,32c0,18 23,6 64,-36zM5907,12614c55,-57 66,-82 47,-111c-12,-19 -10,-29 17,-88c38,-81 43,-151 15,-213c-23,-52 -12,-74 25,-48c33,23 86,21 99,-4c6,-11 26,-26 45,-34c37,-16 88,-79 105,-131c12,-37 4,-61 -33,-102c-22,-25 -16,-59 9,-49c49,19 64,18 64,-2c0,-27 26,-53 46,-45c11,4 13,14 9,33c-7,30 4,43 28,34c22,-8 25,-21 47,-170c10,-74 24,-153 31,-176l11,-43l19,38c23,43 39,41 39,-6c0,-54 -20,-107 -54,-145c-18,-20 -36,-45 -39,-55c-4,-10 -26,-26 -49,-36c-24,-10 -59,-35 -78,-56c-19,-20 -57,-48 -83,-62c-61,-31 -292,-89 -383,-97c-69,-5 -69,-5 -29,9c22,7 49,14 60,16c65,7 -154,17 -420,18c-170,1 -394,6 -496,11c-169,8 -192,11 -255,37l-69,28l134,7c120,6 166,17 149,33c-9,9 -174,25 -263,25c-165,0 -228,20 -361,112c-77,53 -103,90 -149,212c-29,78 -32,151 -9,239c21,83 45,126 109,197c51,58 73,95 62,106c-3,3 -23,-4 -46,-15c-50,-26 -51,-26 -51,-1c0,12 13,28 32,40c49,30 246,91 313,97c112,9 321,-51 435,-126c54,-36 74,-63 84,-111c3,-14 21,-44 41,-65l35,-40l19,23c11,13 23,46 26,77c6,47 4,60 -18,97c-45,76 -185,198 -227,198c-24,0 -42,24 -34,44c4,9 20,24 36,32c20,11 28,20 23,31c-3,9 0,20 7,25c16,9 132,10 246,1l82,-6l1,-76c0,-42 2,-71 4,-66c2,6 15,48 30,95c15,47 49,128 76,182c42,83 53,98 81,106c58,18 70,20 217,21l144,1zM6200,12486c0,-7 -10,-25 -21,-40l-21,-27l-24,22c-30,28 -30,37 -1,49c34,13 67,12 67,-4zM3751,11632c-74,-265 -144,-419 -177,-391c-34,28 1,172 86,345c63,130 112,201 118,171c2,-10 -10,-66 -27,-125zM3962,11743c22,-20 23,-46 3,-141c-9,-40 -14,-103 -13,-140l3,-67l-37,-3c-49,-4 -78,12 -78,44c0,25 66,300 76,316c8,13 26,9 46,-9zM3576,11476c-20,-56 -36,-118 -36,-137c-1,-49 -36,-202 -59,-254c-37,-83 -89,-48 -77,51c8,66 77,265 127,365c77,154 101,140 45,-25zM3806,11519c-7,-87 -27,-139 -52,-139c-14,0 -16,9 -12,53c5,49 50,167 64,167c4,0 4,-37 0,-81zM4100,11468c31,-42 47,-84 37,-94c-10,-11 -45,7 -61,31c-20,31 -33,105 -17,105c6,0 25,-19 41,-42zM3454,11433c-4,-16 -20,-71 -36,-123c-38,-125 -58,-220 -59,-283c0,-29 -5,-67 -12,-86c-14,-40 -58,-76 -81,-68c-45,17 5,254 96,456c46,103 109,174 92,104zM3340,11401c0,-5 -13,-45 -29,-89c-37,-100 -97,-339 -107,-422c-7,-66 -39,-117 -67,-107c-20,6 -19,103 2,189c27,105 169,438 187,438c8,0 14,-4 14,-9zM4332,11244c33,-21 92,-47 132,-60l71,-23h-70c-96,-1 -143,13 -157,47c-7,15 -21,37 -32,50c-28,31 -13,28 56,-14zM4050,11235c4,-16 12,-40 18,-52c29,-53 7,-140 -53,-211c-39,-47 -136,-102 -178,-102c-29,0 -45,10 -91,53c-35,33 -56,61 -56,75c0,31 58,92 164,171c148,111 185,123 196,66zM4357,11099c30,-15 51,-17 128,-12c51,3 101,3 112,-1c16,-7 16,-9 -7,-21c-14,-8 -35,-14 -47,-15c-60,-1 -313,-100 -383,-150c-49,-35 -54,-54 -23,-91c15,-17 45,-40 68,-50l40,-18l23,29c16,21 43,36 87,49c79,25 541,102 610,103c81,0 225,-14 231,-23c2,-4 -7,-16 -21,-25c-44,-29 -25,-85 24,-69c9,3 21,20 26,38c14,46 53,49 93,6c30,-32 30,-32 58,-15c22,15 36,17 78,10c28,-5 118,-9 200,-9c163,0 187,-9 118,-44c-21,-11 -63,-40 -92,-65c-33,-29 -73,-51 -106,-61c-68,-20 -104,-60 -104,-117c0,-49 -37,-103 -133,-196c-72,-68 -147,-108 -226,-121c-53,-8 -88,-28 -74,-42c5,-5 49,-11 98,-15c50,-3 112,-13 138,-22c35,-12 53,-13 64,-6c29,18 26,35 -6,47c-17,6 -31,14 -31,18c0,3 26,22 58,42c31,19 73,52 91,71c21,22 44,36 59,36c19,0 28,10 45,50c23,54 42,68 31,23c-12,-48 -51,-117 -84,-148c-37,-35 -103,-130 -183,-265c-31,-52 -86,-133 -122,-180c-36,-47 -88,-116 -114,-155c-58,-84 -83,-107 -136,-124c-75,-25 -152,-79 -192,-136c-34,-47 -166,-210 -285,-349c-52,-61 -121,-106 -221,-146c-169,-67 -359,-100 -460,-79c-70,14 -155,16 -207,5c-34,-8 -39,-5 -108,60c-40,37 -69,70 -65,74c4,4 48,20 97,36c106,33 172,72 282,165c121,102 143,150 29,65c-121,-91 -314,-186 -457,-226c-91,-25 -198,-37 -198,-22c0,13 62,32 103,32c75,0 329,114 483,216c128,84 239,198 147,151c-15,-8 -75,-50 -133,-92c-118,-87 -211,-138 -243,-133c-20,3 -17,8 27,55l48,52l-53,-29c-30,-16 -76,-37 -104,-46c-67,-22 -73,-29 -44,-53c16,-13 21,-23 14,-30c-15,-15 -178,-60 -259,-72c-83,-12 -159,-37 -150,-50c16,-27 109,-62 221,-84c97,-19 152,-44 208,-96c58,-53 85,-105 92,-175c4,-36 10,-54 19,-54c9,0 14,12 14,35c0,33 21,57 36,42c10,-10 33,-112 48,-217l16,-105l-27,-22c-15,-12 -63,-42 -107,-65c-92,-50 -83,-57 40,-32c73,14 88,14 95,3c23,-38 -66,-94 -148,-92c-29,0 -53,-4 -53,-8c0,-24 124,-31 262,-15l76,8l17,-31c9,-18 19,-54 22,-81c4,-39 1,-55 -16,-84c-24,-38 -104,-96 -132,-96c-24,0 -69,-21 -69,-32c0,-15 100,3 194,34c50,16 99,27 110,25c18,-3 15,-9 -29,-52c-27,-26 -90,-71 -139,-99c-95,-54 -123,-82 -64,-66c59,18 132,59 201,115c38,30 72,55 77,55c12,0 45,-48 64,-94c23,-54 20,-90 -10,-125c-30,-36 -139,-91 -180,-91c-16,0 -36,-5 -44,-10c-13,-9 -13,-11 0,-20c27,-18 113,-11 175,15c73,30 75,30 75,5c0,-33 -46,-68 -106,-80c-61,-13 -74,-24 -45,-39c28,-15 97,-13 129,3c40,21 87,74 116,134c15,28 31,52 36,52c6,0 27,-9 47,-20c21,-11 54,-20 73,-19l35,1l-27,10c-16,5 -28,14 -28,19c0,19 62,24 250,21c205,-2 336,-14 352,-30c6,-6 13,-25 17,-43l7,-33l114,-13c139,-16 243,-43 313,-83c30,-17 68,-30 87,-30c49,0 107,-20 131,-46c18,-20 20,-26 9,-39c-11,-13 -26,-15 -81,-9c-88,8 -101,0 -55,-38c20,-16 36,-36 36,-44c0,-24 -44,-16 -146,30c-135,59 -239,96 -275,96c-41,0 -109,-62 -109,-101c0,-42 132,-229 270,-384c40,-44 88,-104 107,-133c37,-57 55,-62 63,-16c3,17 11,29 20,29c22,0 26,-144 5,-185c-17,-33 -59,-49 -84,-33c-20,14 -17,59 5,84c17,18 15,19 -34,19c-28,0 -58,3 -67,6c-9,4 -52,79 -95,168c-46,94 -99,186 -127,221c-50,61 -128,114 -170,115c-14,0 -49,-25 -92,-66l-70,-66l51,-61c69,-83 98,-147 98,-218c0,-40 6,-63 19,-80c10,-13 28,-44 41,-69c12,-25 38,-64 56,-87c44,-54 55,-86 48,-136c-9,-58 -19,-67 -76,-67c-65,0 -84,12 -93,57c-4,21 -13,45 -21,53c-7,9 -20,49 -29,90c-30,145 -138,324 -273,453c-72,68 -106,74 -168,29c-67,-49 -68,-52 -28,-108c85,-118 85,-117 98,-317c11,-146 17,-192 35,-231c25,-58 26,-77 4,-119c-9,-18 -22,-50 -28,-72c-16,-54 -42,-57 -95,-9c-46,42 -46,40 -15,154c13,49 16,90 13,170c-4,101 -7,111 -52,210c-26,58 -54,119 -61,136c-11,27 -22,34 -67,44c-93,22 -119,45 -157,142c-7,19 -21,30 -48,38c-68,19 -103,61 -148,178c-16,43 -36,79 -50,88c-28,18 -132,193 -174,294c-40,93 -55,110 -98,110c-37,0 -40,7 -18,36c21,28 19,31 -26,30c-52,-1 -59,15 -23,49c23,22 26,28 14,36c-8,5 -31,9 -50,8c-57,-3 -70,0 -70,15c0,8 16,20 35,26c67,22 28,46 -56,35c-62,-9 -89,7 -63,36c9,10 32,23 51,30c54,18 35,34 -42,34c-42,0 -70,4 -72,11c-2,6 17,30 43,53l47,41l-74,-2c-90,-4 -95,8 -24,54c27,18 51,41 53,50c3,16 1,16 -32,3c-37,-15 -93,-20 -120,-9c-26,10 -18,31 16,43c43,15 98,59 98,78c0,10 -5,13 -17,8c-42,-16 -121,-28 -147,-21c-24,6 -26,9 -15,23c8,8 42,33 76,55c35,22 63,44 63,49c0,6 -35,9 -82,7c-49,-2 -85,1 -88,7c-5,10 50,50 121,88c48,26 24,35 -81,29c-60,-3 -89,-1 -94,7c-7,11 11,20 142,76c23,10 42,22 42,27c0,4 -38,8 -83,8c-79,0 -87,2 -128,33l-44,32l105,5c58,3 111,9 118,13c19,13 14,27 -9,27c-32,0 -89,30 -106,56c-8,13 -19,43 -25,66c-5,23 -14,46 -21,50c-17,11 -46,-20 -53,-58c-19,-104 -41,19 -25,144c6,46 14,88 18,95c14,21 246,241 292,277c45,35 101,133 101,177c0,31 14,36 36,12c15,-17 16,-24 6,-53c-15,-40 -16,-96 -2,-96c15,0 80,106 80,130c0,11 -7,23 -15,26c-22,9 -19,19 16,59c18,20 29,41 25,50c-6,17 -32,20 -41,5c-3,-5 -13,-10 -22,-10c-44,0 116,120 189,142c21,6 38,13 38,15c0,3 -18,25 -39,51c-45,54 -95,178 -94,237c0,22 10,65 21,95c14,36 22,79 22,125c1,86 11,115 83,234c40,65 57,104 57,128c0,40 33,78 76,89c16,4 53,2 84,-5c30,-7 80,-15 110,-18c50,-4 61,-1 119,34c94,55 166,125 198,191c25,51 28,67 27,149l-1,92l84,-66c47,-36 101,-74 120,-84zM3090,10966c-17,-55 -39,-126 -48,-156c-15,-47 -20,-55 -42,-55c-24,0 -25,3 -24,50c2,61 49,187 101,270l38,60l3,-34c2,-18 -11,-79 -28,-135zM6365,11100c10,-16 -13,-39 -67,-66c-64,-32 -130,-48 -326,-79c-136,-21 -198,-25 -360,-24c-226,0 -323,11 -300,34c3,3 135,9 294,15c371,12 576,43 679,105c44,26 70,30 80,15zM5640,11030c0,-5 -25,-10 -56,-10c-34,0 -53,4 -49,10c3,6 28,10 56,10c27,0 49,-4 49,-10zM2971,10955c-16,-91 -57,-218 -80,-246l-18,-23l-12,23c-19,35 2,110 62,222c28,54 53,96 55,94c3,-2 -1,-34 -7,-70zM3570,10961c0,-19 -215,-271 -231,-271c-18,0 -8,29 37,99c44,68 46,75 40,121c-5,35 -3,50 6,53c23,9 148,7 148,-2zM4659,10951c18,-12 5,-31 -22,-31c-29,0 -51,15 -43,29c8,13 45,14 65,2zM2674,10768c-61,-111 -127,-161 -74,-58c21,41 99,134 107,127c2,-2 -13,-33 -33,-69zM2818,10737c2,-9 -8,-42 -22,-73c-19,-41 -30,-55 -43,-52c-23,5 -21,42 6,103c15,34 25,46 38,43c10,-2 19,-11 21,-21zM2970,10610c-11,-22 -40,-70 -64,-108c-123,-190 -189,-379 -236,-677c-11,-71 -36,-206 -55,-300c-54,-272 -96,-663 -77,-716c9,-22 10,-22 15,-4c4,11 13,81 22,155c20,171 35,258 95,555c26,132 58,303 70,380c42,273 59,335 91,335c14,0 9,-42 -24,-235c-14,-82 -35,-206 -46,-275c-12,-69 -28,-163 -36,-209c-8,-46 -18,-122 -22,-168c-7,-91 0,-101 41,-60c29,29 46,103 46,200c0,157 65,685 96,781c30,93 169,350 184,341c11,-7 -8,-62 -50,-145c-54,-107 -80,-186 -100,-309c-24,-146 -66,-490 -83,-686c-13,-142 -16,-153 -45,-193c-45,-63 -90,-180 -102,-264c-6,-40 -19,-104 -30,-143c-31,-115 -52,-247 -46,-291c3,-23 15,-61 27,-84c21,-40 22,-50 16,-205c-4,-90 -10,-215 -13,-279c-4,-70 -3,-116 2,-116c5,0 18,32 28,70c19,74 40,96 31,33c-27,-196 -31,-273 -18,-287c4,-4 15,3 24,15c26,35 42,15 37,-46c-5,-60 -57,-160 -139,-266c-57,-73 -89,-121 -89,-131c0,-22 30,3 132,108c62,64 125,122 139,129c17,9 34,34 49,70c23,57 42,67 48,26c6,-41 -6,-65 -81,-153c-40,-48 -91,-119 -112,-159c-22,-39 -61,-95 -87,-125c-87,-100 -86,-123 3,-50c64,53 118,114 179,205c45,67 80,90 80,54c0,-34 -89,-204 -167,-321c-42,-62 -73,-115 -71,-118c9,-8 148,146 222,246c74,101 85,112 99,103c29,-17 -25,-146 -120,-289c-31,-46 -53,-87 -49,-91c3,-4 66,53 140,125c73,73 138,132 144,132c36,0 -11,-121 -83,-219c-30,-41 -55,-78 -55,-82c0,-33 53,9 177,138c78,81 145,144 149,140c12,-12 -14,-122 -49,-211c-19,-48 -46,-95 -68,-118c-44,-47 -73,-49 -221,-13c-144,34 -300,55 -458,62c-103,4 -144,10 -172,24c-40,20 -40,21 -57,-32c-19,-60 -57,-87 -137,-98c-78,-12 -114,-22 -361,-109l-173,-61l-12,22c-6,12 -13,84 -16,167c-3,118 1,183 22,345c48,365 95,563 232,983c2,7 0,11 -5,8c-24,-15 -119,-277 -185,-508c-95,-331 -121,-530 -114,-850c4,-170 3,-208 -8,-208c-24,0 -29,51 -28,305c1,328 21,476 110,825c25,96 61,245 79,330c29,130 113,415 155,525l11,30l22,-49c20,-48 20,-50 3,-98c-17,-50 -15,-71 5,-51c19,19 28,85 39,293c16,316 48,600 79,705c4,17 18,49 30,70l22,40l-6,-60c-3,-33 -17,-139 -30,-235c-29,-211 -40,-351 -27,-330c18,27 41,132 91,425c54,310 73,397 97,433c35,53 44,11 19,-85c-8,-32 -33,-175 -55,-318c-22,-143 -51,-321 -65,-395c-23,-129 -37,-247 -50,-430c-3,-46 -4,-82 -1,-80c2,3 14,57 25,120c12,63 42,201 66,305c53,232 61,286 75,490c23,351 76,558 149,583c37,13 58,45 70,108c21,110 177,424 211,424c14,0 -4,-47 -84,-216c-50,-108 -81,-187 -90,-235c-8,-41 -26,-128 -40,-194c-14,-66 -37,-201 -52,-300c-14,-99 -41,-254 -60,-345c-52,-245 -84,-460 -91,-600c-4,-99 -3,-123 7,-113c7,6 18,68 26,142c16,153 39,275 96,496c51,201 83,291 118,331c28,32 47,121 70,329c12,111 12,111 1,100c-11,-12 -33,-103 -65,-268c-27,-137 -32,-151 -48,-141c-16,10 -3,178 27,338c35,188 67,284 114,341c21,26 64,95 96,153c69,129 184,307 192,298c12,-12 -196,-413 -233,-450c-19,-19 -60,-111 -69,-153c-10,-50 9,-39 23,12c11,43 74,126 86,114c9,-8 -70,-426 -114,-604c-44,-180 -64,-296 -79,-465c-21,-227 -11,-213 49,70c32,151 72,334 90,405c17,72 36,179 41,240c13,169 83,415 161,570c35,68 169,288 200,328c39,49 54,47 28,-3zM5940,10583c199,-41 291,-114 491,-394c33,-47 78,-89 170,-158c68,-52 136,-99 152,-105c15,-6 27,-17 27,-24c0,-8 9,-25 19,-38c11,-14 27,-49 37,-77c31,-95 77,-144 174,-182c36,-14 88,-43 117,-64c28,-22 60,-44 71,-50c21,-11 68,-98 59,-107c-3,-3 -39,26 -81,64c-82,77 -153,111 -241,119c-46,4 -58,0 -160,-58c-162,-91 -266,-142 -273,-134c-4,4 21,33 55,65c35,31 60,60 57,63c-3,3 -44,-8 -90,-25c-91,-31 -159,-35 -159,-8c0,9 11,16 25,18c40,4 120,44 120,60c0,12 -11,13 -55,7c-30,-3 -55,-3 -55,1c0,3 16,24 35,45c31,35 44,59 30,59c-2,0 -28,-9 -57,-19c-117,-43 -126,-35 -51,41c26,26 44,51 40,54c-4,4 -42,-7 -84,-24c-68,-26 -183,-55 -183,-46c0,2 33,25 73,53c40,27 79,57 87,67c14,16 13,17 -20,10c-19,-3 -78,-19 -130,-35c-187,-58 -211,-50 -72,23c96,50 140,81 130,91c-3,4 -57,-7 -119,-24c-62,-17 -116,-28 -121,-25c-19,12 -5,27 50,52l57,26l-34,4c-19,2 -70,-1 -114,-7c-44,-6 -108,-11 -141,-10l-61,1l50,12c66,17 101,32 136,57c57,40 26,49 -102,27c-86,-14 -111,-1 -58,31c19,12 39,23 44,25c26,9 -18,27 -81,33l-69,6l-2,69c-3,64 0,75 43,160c37,74 83,185 119,285c5,14 19,12 145,-14zM3180,10591c0,-5 -18,-49 -40,-99c-22,-49 -40,-104 -40,-121c0,-20 -5,-31 -14,-31c-8,0 -23,-16 -35,-36c-21,-34 -41,-38 -41,-7c0,16 80,179 125,258c25,41 45,58 45,36zM3350,10451c0,-49 -14,-70 -37,-55c-20,13 -20,78 -1,101c17,21 38,-4 38,-46zM3221,10319c-12,-40 -38,-58 -47,-34c-8,21 2,54 28,95l23,35l3,-30c2,-16 -1,-46 -7,-66zM2345,10203c-31,-65 -72,-152 -90,-193c-56,-130 -95,-200 -110,-200c-8,0 -15,8 -15,19c0,26 203,431 236,470c14,17 29,30 31,27c3,-2 -21,-58 -52,-123zM3128,10240c17,-11 32,-27 32,-36c0,-9 -13,-98 -29,-197c-17,-100 -35,-231 -41,-291c-11,-108 -21,-146 -40,-146c-16,0 -11,89 12,237c15,95 22,187 22,296c1,86 3,157 6,157c3,0 20,-9 38,-20zM5484,10190c-23,-43 -44,-64 -44,-45c0,9 41,88 53,104c24,29 18,-10 -9,-59zM3024,10158c7,-75 4,-102 -33,-368c-39,-272 -49,-330 -62,-346c-18,-22 -27,0 -22,54c3,26 20,151 38,277c19,127 37,271 40,320c3,50 8,100 11,113c9,44 22,21 28,-50zM3247,10171c-6,-69 -24,-111 -38,-90c-10,16 -2,104 13,132c19,37 31,18 25,-42zM3208,9835c0,-77 -9,-117 -27,-123c-11,-4 -13,14 -9,94c4,103 15,144 29,108c4,-10 7,-46 7,-79zM3328,9874c3,-42 -17,-82 -36,-70c-15,9 -15,71 -1,97c16,30 34,17 37,-27zM2065,9823c-21,-73 -54,-128 -68,-114c-14,14 9,91 46,149c36,57 45,43 22,-35zM5586,9790c50,-49 97,-90 104,-90c6,0 47,-25 90,-55c43,-31 109,-69 147,-86c124,-55 174,-83 231,-132c31,-27 84,-63 116,-80c94,-51 101,-65 101,-215v-127l-57,-89c-32,-49 -58,-95 -58,-101c0,-23 -140,-145 -220,-192c-155,-89 -213,-161 -191,-234c14,-45 46,-72 149,-123c41,-21 72,-43 72,-51c0,-33 -351,-335 -388,-335c-7,0 -23,-18 -37,-39c-19,-31 -42,-48 -102,-77c-43,-20 -83,-43 -89,-52c-10,-14 -13,-13 -25,6c-8,12 -17,22 -20,22c-9,0 -41,-81 -35,-87c3,-3 20,-8 38,-12l33,-7l-29,-27c-44,-41 -163,-97 -205,-96c-51,0 -200,34 -214,48c-31,31 7,199 55,243c27,24 145,41 234,33c50,-5 75,-4 71,2c-6,10 -27,16 -134,43c-82,20 -93,64 -42,170c63,133 113,360 128,575c5,71 6,138 2,148c-7,19 -8,19 -26,1c-33,-34 -66,-122 -90,-243c-29,-145 -46,-209 -91,-354c-19,-61 -34,-123 -32,-137c2,-21 8,-14 35,41c18,37 52,126 77,199c25,73 48,135 52,139c3,3 4,-3 1,-14c-3,-11 -9,-45 -12,-75c-13,-101 -103,-339 -139,-369c-13,-11 -19,-11 -32,0c-13,10 -20,10 -42,-3c-15,-8 -48,-18 -74,-21c-26,-4 -82,-25 -125,-47c-58,-29 -103,-44 -172,-56c-109,-18 -214,-54 -256,-89c-49,-39 -25,-50 113,-52c114,-1 172,-12 172,-33c0,-17 -52,-25 -160,-24c-81,1 -117,6 -158,23c-33,13 -75,21 -112,21c-32,0 -66,3 -75,7c-10,3 -41,43 -70,87c-28,45 -76,110 -105,146c-29,36 -72,108 -97,160c-39,86 -54,116 -115,231c-10,20 -25,84 -33,145c-21,157 -22,152 23,159c20,3 64,20 98,37c56,29 66,31 135,26c41,-4 111,-19 156,-34c80,-27 83,-27 103,-9c30,27 24,42 -20,49c-22,3 -40,10 -40,14c0,17 46,51 100,76c66,30 216,70 230,61c5,-3 10,-18 10,-33c0,-30 27,-70 50,-72c31,-4 39,1 60,46l22,45l-26,28c-20,21 -26,37 -26,73c0,54 34,105 178,261c49,54 104,125 122,158c36,68 55,70 35,3c-7,-25 -11,-52 -8,-59c2,-8 36,-32 75,-55c103,-62 106,-72 78,-275c-39,-286 -47,-325 -83,-394c-19,-36 -51,-120 -72,-186c-20,-66 -61,-173 -91,-237c-59,-127 -63,-141 -37,-136c26,5 86,126 184,373c79,200 96,252 125,399c42,204 57,239 50,111c-7,-142 -97,-472 -202,-743c-24,-63 -44,-116 -44,-118c0,-2 7,-4 16,-4c19,0 78,123 129,270c35,102 141,482 152,548c7,45 -6,139 -22,155c-10,10 -12,32 -9,78c8,97 12,113 29,99c11,-9 14,-6 17,16c4,32 28,46 28,16c0,-11 7,-25 15,-32c9,-7 15,-29 15,-51c0,-22 5,-39 10,-39c14,0 12,66 -5,195c-22,167 -20,189 25,295c23,51 43,114 47,139c10,74 69,171 104,171c7,0 54,-40 105,-90zM1984,9581c7,-10 -37,-73 -91,-130c-40,-41 -63,-52 -63,-29c0,20 60,106 96,138c36,31 49,36 58,21zM5201,9570c22,-12 26,-60 5,-60c-8,0 -24,12 -35,26c-30,38 -13,57 30,34zM5138,9484c21,-14 31,-62 16,-77c-17,-17 -74,47 -74,83c0,15 32,12 58,-6zM4860,9471c0,-58 -58,-152 -170,-276c-40,-44 -83,-97 -97,-117c-27,-40 -53,-50 -53,-20c0,31 72,141 164,251c49,58 100,123 114,144c27,41 42,47 42,18zM6973,9480c83,-12 116,-28 181,-89c75,-70 106,-91 132,-91c29,0 47,-28 64,-95c20,-85 85,-196 171,-291c97,-108 135,-182 149,-290c5,-42 15,-83 20,-90c15,-17 1,-24 -65,-31c-35,-4 -60,-2 -69,6c-7,6 -17,39 -20,74c-11,92 -70,263 -113,327c-45,67 -123,218 -123,239c0,19 -39,61 -58,61c-17,0 -11,-71 19,-225c21,-105 47,-170 103,-264c42,-69 62,-137 76,-261c6,-52 15,-118 21,-145c9,-42 8,-70 -11,-168c-16,-83 -20,-131 -15,-160c21,-116 -3,-164 -106,-216c-80,-40 -135,-41 -178,-6c-56,48 -53,94 9,125c21,11 50,35 64,53c33,42 71,145 86,228c6,35 25,93 42,127c43,90 37,118 -68,314c-47,88 -98,179 -113,203c-15,24 -56,106 -90,182c-88,196 -97,204 -122,116c-10,-35 -13,-100 -12,-243c3,-176 5,-204 28,-280c29,-97 33,-207 10,-310c-18,-83 -18,-80 5,-80c25,0 27,-33 4,-90c-21,-51 -72,-80 -142,-80c-80,0 -93,33 -41,105c19,27 33,60 36,87c6,50 -19,251 -48,388c-11,52 -24,151 -30,220c-12,146 -23,196 -44,204c-17,6 -35,-29 -35,-65c0,-34 -18,-57 -55,-69c-25,-8 -56,-36 -107,-98c-105,-126 -181,-199 -286,-270c-127,-87 -196,-122 -242,-122c-49,0 -75,23 -59,52c11,21 82,57 112,58c38,0 76,31 115,93c24,40 61,81 94,106c30,22 75,67 100,99c33,43 54,61 77,65c36,8 50,44 32,85c-10,21 -8,39 13,106c15,45 31,99 36,122c14,58 105,155 178,190c31,15 73,40 93,55c64,50 80,54 182,39zM5080,9380c26,-14 42,-65 30,-96c-14,-35 -48,-28 -77,15c-27,40 -28,54 -7,75c18,19 28,20 54,6zM1877,9242c-6,-29 -16,-53 -22,-53c-20,1 -16,69 7,113c21,39 23,41 25,18c2,-14 -3,-49 -10,-78zM1770,9140c0,-17 -81,-303 -113,-400c-20,-62 -33,-87 -35,-72c-8,51 74,414 104,459c14,23 44,32 44,13zM1817,8844c-9,-154 -17,-194 -42,-194c-12,0 -15,14 -15,74c0,103 36,266 59,266c3,0 2,-66 -2,-146zM7079,8840c9,-56 -1,-106 -19,-95c-22,14 -41,151 -23,169c14,13 34,-22 42,-74zM7405,8854c24,-26 57,-88 70,-131c9,-33 -16,-30 -42,5c-25,34 -73,127 -73,142c0,18 20,11 45,-16zM3773,8799c35,-23 63,-32 107,-36c33,-3 63,-9 65,-13c10,-16 -64,-32 -171,-37l-110,-6l-27,32c-31,38 -33,48 -10,73c26,29 91,24 146,-13zM7188,8718c31,-31 3,-64 -44,-52c-39,10 -25,64 16,64c9,0 21,-5 28,-12zM6536,8668c9,-15 -50,-68 -76,-68c-29,0 -25,14 15,49c39,34 50,37 61,19zM6688,8590c12,-25 22,-62 22,-87c0,-42 -13,-63 -26,-42c-8,13 -44,148 -44,167c0,26 25,6 48,-38zM1722,8553c-7,-32 -21,-89 -31,-128c-11,-38 -20,-84 -20,-101c-1,-18 -10,-42 -20,-55c-19,-23 -20,-23 -27,-5c-16,41 45,312 79,354c22,27 31,-5 19,-65zM7274,8538c38,-77 59,-168 38,-168c-15,0 -26,21 -67,135c-39,107 -41,118 -22,113c6,-2 29,-38 51,-80zM1562,8520c2,-19 -2,-25 -17,-25c-17,0 -21,8 -23,45l-3,45l20,-20c11,-11 22,-31 23,-45zM7586,8431c21,-15 50,-40 64,-55c23,-25 24,-29 12,-83c-14,-67 -36,-95 -71,-91c-32,4 -47,34 -67,135c-16,82 -12,123 10,123c7,0 31,-13 52,-29zM6240,8437c0,-17 -47,-60 -87,-81c-45,-22 -118,-32 -128,-16c-12,19 16,39 106,76c93,37 109,40 109,21zM6561,8393c8,-10 23,-35 32,-57c28,-61 66,-104 103,-118c39,-14 43,-31 14,-55c-65,-56 -34,-165 62,-214c21,-10 52,-19 71,-19c18,0 42,-6 52,-14c18,-13 18,-18 7,-81c-23,-122 -62,-184 -70,-112c-5,44 -17,31 -41,-45c-13,-40 -35,-95 -49,-123c-14,-27 -37,-88 -51,-134c-14,-47 -32,-86 -39,-89c-20,-6 -14,35 24,151c19,60 34,122 32,136l-3,26l-16,-30c-9,-16 -44,-104 -79,-195c-74,-198 -110,-280 -121,-280c-15,0 -10,38 17,137c14,51 24,101 22,109c-7,32 -22,12 -38,-48c-36,-137 -169,-428 -195,-428c-10,0 -10,13 0,68c21,109 28,192 17,192c-16,0 -27,-21 -67,-125c-43,-115 -115,-271 -138,-300c-27,-35 -30,4 -8,93c43,167 16,187 -39,30c-31,-89 -105,-245 -133,-280c-24,-30 -40,-22 -33,15c16,77 35,221 30,226c-11,11 -42,-44 -58,-103c-33,-118 -192,-396 -226,-396c-17,0 -11,44 20,135c17,49 30,96 30,104c0,34 -41,-27 -69,-101c-32,-85 -100,-204 -173,-302c-78,-104 -103,-82 -48,44c17,38 30,71 30,75c0,18 -24,-14 -65,-87c-79,-140 -234,-337 -234,-298c-1,8 15,53 35,100c66,159 74,180 64,180c-5,0 -22,-24 -36,-52c-52,-104 -263,-377 -319,-414c-50,-33 -48,-2 4,78c71,109 76,121 56,116c-10,-1 -70,-66 -134,-142c-123,-148 -178,-200 -206,-194c-13,2 1,27 64,113c44,61 81,113 81,118c0,21 -31,0 -90,-62c-83,-89 -183,-163 -255,-190c-63,-24 -65,-24 -65,-12c0,5 25,28 57,51c112,86 203,176 203,203c0,5 -17,-5 -37,-22c-73,-61 -185,-133 -266,-171c-84,-39 -147,-58 -147,-43c0,4 34,31 76,58c72,48 183,150 173,159c-2,3 -49,-22 -103,-54c-105,-63 -200,-104 -223,-96c-9,4 -11,14 -7,31c6,25 5,26 -36,23c-28,-2 -44,1 -47,10c-3,7 23,39 57,72c56,54 68,80 37,80c-7,0 -36,-16 -65,-36c-29,-19 -83,-49 -119,-65c-37,-16 -107,-61 -157,-99c-50,-38 -112,-78 -138,-90c-43,-19 -78,-19 -78,0c0,5 -9,11 -20,15c-32,10 -74,-20 -104,-75c-18,-34 -39,-56 -59,-65c-92,-40 -228,-95 -237,-95c-19,0 -10,26 20,55c16,16 28,31 25,33c-3,3 -61,-23 -129,-57c-163,-82 -188,-78 -79,13c77,62 97,86 74,86c-4,0 -51,-20 -102,-44c-92,-43 -203,-75 -215,-63c-13,12 19,38 95,77c85,44 150,94 139,106c-5,4 -47,-11 -95,-34c-49,-23 -100,-44 -115,-48c-46,-11 -33,17 27,59c57,40 72,64 33,51c-13,-3 -62,-26 -110,-50c-144,-72 -192,-51 -69,30c70,47 115,96 88,96c-8,0 -72,-20 -143,-45c-193,-67 -195,-63 -46,55c57,44 102,86 99,93c-2,7 -23,10 -55,8c-67,-3 -67,7 -7,113c25,43 45,84 45,92c0,7 -15,17 -32,22l-33,8v95c0,75 5,105 23,150c23,55 23,59 8,103c-9,26 -16,67 -16,91v45h-55c-30,0 -55,2 -55,5c0,3 9,14 21,26c25,25 15,40 -29,41c-40,1 -75,-22 -112,-74c-39,-53 -47,-85 -27,-105c19,-19 37,-9 37,22c0,37 18,75 35,75c27,0 71,-27 89,-55c9,-14 21,-47 26,-73c16,-88 -25,-313 -77,-416c-49,-97 -162,-228 -259,-302c-40,-30 -83,-68 -96,-85c-23,-32 -68,-78 -140,-144c-76,-70 -137,-227 -203,-520c-57,-251 -133,-436 -234,-570c-33,-44 -61,-85 -61,-91c0,-21 -131,-278 -233,-458c-80,-141 -119,-198 -179,-263c-137,-149 -153,-181 -163,-333c-10,-157 -10,-156 -57,-172c-75,-24 -60,-38 41,-38c64,0 104,-5 138,-19c26,-10 66,-22 88,-25c88,-17 186,-87 241,-174c75,-118 235,-291 299,-324c55,-28 125,-80 223,-165c85,-75 92,-77 203,-87c36,-3 76,-15 112,-34c90,-48 282,-70 282,-32c0,23 -52,42 -127,48c-126,9 -68,38 72,36c96,-2 282,-37 320,-61c14,-9 59,-44 100,-78c41,-34 136,-107 210,-161c152,-113 322,-257 390,-330c99,-107 202,-315 260,-529c23,-82 44,-172 47,-200c6,-50 6,-50 -14,-32c-12,10 -35,45 -52,77c-36,67 -116,177 -215,295c-37,44 -93,116 -124,160c-31,44 -83,111 -117,149c-33,38 -74,85 -91,104c-28,32 -34,35 -49,22c-14,-12 -18,-12 -26,1c-4,8 -6,21 -3,30c3,11 -7,23 -29,36c-20,12 -47,44 -66,78c-42,73 -190,225 -220,225c-22,0 -22,0 5,-35c28,-38 18,-45 -26,-20c-14,8 -28,14 -32,15c-23,1 2,-28 90,-98c125,-102 157,-138 226,-244c41,-66 67,-95 103,-118c27,-16 66,-51 88,-77c104,-123 113,-166 16,-79c-94,83 -100,78 -28,-26c79,-115 17,-86 -105,48c-78,86 -118,121 -118,105c0,-6 12,-35 27,-65c15,-31 23,-59 19,-63c-4,-4 -33,6 -64,22c-77,40 -202,166 -236,240c-24,50 -34,60 -80,81c-30,13 -114,38 -187,55c-165,38 -228,60 -299,103c-115,70 -98,67 -312,54l-193,-11l-70,25c-232,85 -396,148 -426,163c-73,38 -284,289 -389,465c-50,83 -108,150 -166,190c-11,8 -26,25 -33,38c-14,26 -4,47 57,120l32,40l-65,-15c-36,-8 -72,-12 -80,-9c-40,15 2,86 91,157c36,28 63,53 61,55c-5,5 -201,-62 -238,-82c-34,-17 -69,-61 -69,-85c0,-31 -16,-22 -35,21c-38,85 -10,133 216,366c117,121 179,194 238,283c102,152 105,167 21,111c-79,-53 -92,-36 -32,44c66,88 214,307 211,311c-2,2 -39,-26 -82,-61c-119,-97 -121,-92 -19,51c69,97 110,171 99,181c-3,4 -23,-8 -44,-26c-20,-18 -39,-28 -41,-22c-4,13 10,35 113,182c107,151 107,149 39,96c-53,-41 -84,-56 -84,-40c0,3 33,51 74,107c87,121 129,187 123,194c-3,2 -41,-30 -86,-71c-44,-42 -83,-76 -86,-76c-8,0 10,33 71,127c72,112 83,134 82,171c-1,41 39,93 108,139c29,19 56,45 60,57c4,11 30,48 59,81c28,33 65,78 80,100c51,70 136,165 304,340c193,200 254,270 249,285c-2,6 -51,-23 -110,-65c-102,-72 -128,-86 -128,-66c0,5 44,49 97,98c156,140 219,205 206,210c-7,3 -39,-11 -70,-31c-73,-44 -121,-62 -134,-49c-7,7 30,47 107,119c146,135 186,175 180,181c-2,3 -47,-18 -99,-46c-51,-28 -97,-51 -100,-51c-33,0 55,96 196,214c95,80 72,90 -48,20c-152,-88 -208,-90 -117,-5c68,63 224,174 297,209c239,117 254,122 391,122c105,0 129,-8 136,-45c5,-28 31,-25 38,5c7,28 42,50 82,50c40,0 59,10 69,38c9,22 13,24 52,18c48,-8 104,-38 97,-52c-3,-5 -33,-9 -67,-9c-47,0 -59,-3 -51,-12c16,-19 110,-63 136,-63c20,0 71,-21 181,-73c46,-23 117,-135 97,-155c-4,-4 -39,10 -77,31l-69,38v-24c0,-13 9,-32 20,-42c32,-29 22,-59 -20,-65c-31,-4 -37,-11 -31,-37c0,-5 18,-19 38,-33l37,-25l-40,-5c-33,-4 -39,-9 -42,-32c-2,-18 5,-34 24,-51c43,-41 31,-55 -76,-88c-33,-10 -45,-19 -45,-34c0,-14 11,-22 45,-30c59,-14 62,-35 8,-62c-68,-35 -10,-29 67,6c59,27 84,51 53,51c-7,0 -20,4 -28,10c-12,7 -12,12 4,29c10,11 35,26 55,32c60,19 65,28 35,60c-16,17 -24,34 -21,44c7,16 13,19 60,29c36,8 34,23 -5,58c-32,27 -32,28 -14,43c25,19 96,19 122,0c10,-8 32,-15 47,-15c21,0 32,-8 45,-31c9,-17 28,-45 41,-61c18,-22 26,-26 37,-17c8,6 14,19 14,29c0,10 15,49 32,86c32,66 33,73 30,178c-3,120 -2,121 70,207c42,51 50,76 18,59c-11,-6 -52,-40 -92,-75c-114,-101 -126,-82 -43,66c25,43 45,82 45,87c0,6 -9,12 -20,15c-41,11 -12,157 33,165c13,3 22,-7 34,-38c13,-33 18,-38 26,-25c8,15 11,15 29,-2c11,-10 37,-43 58,-73c50,-72 93,-117 162,-169c97,-73 171,-208 185,-341c8,-83 0,-103 -73,-181c-56,-60 -65,-74 -62,-101c3,-28 8,-34 45,-44c23,-7 61,-24 85,-38c46,-27 170,-76 191,-76c30,0 157,266 157,328c0,16 -12,56 -26,87c-24,53 -26,65 -20,139c8,100 18,141 36,141c25,0 69,-78 124,-220c117,-305 128,-328 172,-361c31,-24 49,-29 109,-32c85,-5 104,4 145,60c35,48 39,104 15,206c-17,71 -36,110 -99,198c-45,64 -49,73 -115,274c-67,203 -67,206 20,139c30,-22 66,-43 80,-46c22,-4 28,-12 33,-43c9,-56 154,-337 198,-383l38,-40l62,7c93,9 181,55 214,112c36,62 43,118 17,147c-12,12 -28,36 -36,53c-30,58 -121,119 -199,132c-25,5 -45,15 -52,27c-6,11 -34,52 -62,90c-81,111 -146,216 -139,223c17,17 291,-14 335,-38c10,-5 60,-15 112,-21c128,-16 192,-3 246,52c70,69 77,118 27,178c-41,48 -88,71 -182,87c-48,8 -92,20 -98,25c-26,26 111,209 205,274c35,24 45,27 61,17c45,-28 90,2 162,108c69,102 140,175 282,288c66,53 164,138 217,189c102,98 138,114 169,76zM1620,8215c10,-13 8,-19 -13,-39c-17,-16 -29,-42 -37,-82c-15,-80 -23,-104 -35,-106c-29,-8 -10,152 25,210c21,35 41,40 60,17zM7114,8135c1,-77 -12,-123 -44,-155c-26,-27 -30,-38 -30,-88c0,-32 7,-85 16,-117c9,-33 19,-70 21,-83c5,-19 -12,-41 -84,-115c-71,-72 -100,-111 -133,-177c-61,-121 -139,-258 -152,-266c-7,-5 -9,4 -4,30c4,21 3,36 -3,36c-21,0 -66,-71 -138,-214c-82,-165 -149,-270 -301,-476c-55,-74 -98,-137 -95,-140c14,-15 247,262 355,423c34,51 63,86 65,80c12,-34 -244,-457 -351,-581c-66,-77 -57,-87 15,-17c73,72 158,175 224,272c47,68 73,86 59,40c-8,-26 -119,-215 -181,-309c-48,-73 -230,-293 -286,-346c-32,-31 -41,-34 -131,-42c-103,-10 -172,-25 -181,-39c-8,-13 38,-22 87,-16c23,3 49,2 57,-4c21,-14 -49,-93 -236,-263c-225,-206 -229,-225 -54,-239c83,-6 114,-14 178,-42c43,-20 122,-47 177,-62c54,-14 155,-47 225,-72c257,-93 286,-103 304,-103c30,0 19,15 -35,45c-61,35 -72,55 -31,55c44,0 129,-55 207,-134c125,-128 267,-223 456,-306c107,-47 133,-66 127,-92c-3,-12 5,-25 23,-38c15,-11 47,-56 70,-101c23,-45 67,-108 96,-140c34,-37 54,-68 54,-83c0,-13 11,-40 25,-60c32,-47 34,-110 5,-126c-12,-6 -41,-10 -67,-8l-46,3l-29,70c-16,39 -35,98 -42,133c-8,34 -26,81 -41,105c-43,66 -165,179 -231,214c-32,17 -87,54 -122,82c-35,28 -70,51 -78,51c-26,0 -68,26 -150,94c-57,48 -127,91 -256,157c-184,93 -277,133 -248,106c8,-8 63,-39 121,-70c124,-64 149,-79 149,-88c0,-14 -137,-31 -205,-27c-59,4 -90,14 -202,66c-142,66 -230,95 -265,90c-22,-3 -22,-4 10,-35c18,-17 118,-75 222,-128c147,-75 198,-107 230,-141c49,-53 49,-79 1,-111c-46,-31 -63,-29 -86,10c-34,58 -129,149 -186,177c-30,16 -84,36 -119,45c-35,9 -112,36 -171,60c-101,41 -232,78 -372,105c-75,15 -117,52 -158,138c-17,37 -36,78 -42,90c-6,13 -58,73 -116,133c-57,61 -102,111 -100,113c2,1 44,26 93,55c138,81 270,176 360,261c46,43 118,101 162,130c166,109 389,314 524,480c42,52 117,140 165,195c48,55 118,143 156,195c37,52 111,145 165,205c53,61 117,142 142,180c25,39 60,83 79,98c18,16 40,42 48,57c22,43 122,340 151,450c33,125 43,148 63,155c49,15 91,114 91,215c1,39 2,42 12,25c7,-11 12,-42 12,-70zM7240,8102c0,-33 -20,-74 -39,-80c-11,-4 -13,5 -8,43c10,72 47,102 47,37zM2800,7952c0,-40 -23,-83 -36,-69c-10,9 -10,66 -1,90c3,9 13,17 22,17c11,0 15,-11 15,-38zM1526,7773c-102,-313 -127,-456 -146,-818c-6,-115 -15,-214 -19,-218c-17,-17 -31,58 -31,157c0,320 142,992 219,1036c28,16 24,-14 -23,-157zM5040,7877c0,-21 -47,-60 -64,-54c-23,9 -20,33 6,51c27,19 58,21 58,3zM2855,7722c-5,-40 -12,-56 -31,-68c-13,-9 -30,-14 -38,-11c-18,7 -14,24 35,147l34,85l3,-50c2,-27 1,-74 -3,-103zM4900,7760c0,-10 -14,-35 -31,-55c-25,-28 -38,-35 -68,-35c-36,0 -101,31 -101,49c0,16 24,29 80,44c82,22 120,22 120,-3zM3045,7583c-4,-32 -11,-66 -16,-75c-13,-24 -39,-23 -39,2c0,26 43,130 54,130c4,0 5,-26 1,-57zM7162,7605c-5,-41 -38,-101 -84,-151c-70,-76 -91,-49 -38,51c62,119 130,174 122,100zM3260,7515c0,-32 -4,-45 -14,-45c-17,0 -27,37 -19,68c10,41 33,26 33,-23zM2940,7444c-5,-12 -13,-25 -19,-28c-20,-13 -22,16 -5,67l18,52l7,-34c4,-19 3,-45 -1,-57zM3115,7393c-7,-66 -32,-112 -54,-99c-9,6 -10,21 -5,50c11,69 34,149 47,165c10,12 13,9 15,-20c2,-19 1,-62 -3,-96zM3356,7428c-8,-38 -29,-63 -46,-53c-23,14 8,85 37,85c12,0 14,-7 9,-32zM3455,7320c10,-15 -13,-75 -36,-96c-16,-14 -22,-15 -28,-5c-8,12 3,83 15,103c7,11 42,10 49,-2zM3190,7247c-6,-30 -17,-63 -25,-73c-26,-34 -20,74 7,116c26,43 33,27 18,-43zM5728,7262c3,-16 -2,-22 -15,-22c-12,0 -26,-13 -36,-35c-10,-20 -29,-40 -44,-46c-34,-13 -100,-2 -107,17c-6,17 23,34 58,34c14,0 35,9 46,20c11,11 27,20 35,20c8,0 20,9 27,20c16,25 32,21 36,-8zM3630,7122c0,-34 -23,-68 -38,-58c-13,8 -16,68 -5,79c3,4 15,7 25,7c13,0 18,-8 18,-28zM3478,7027c5,-27 -45,-127 -64,-127c-13,0 -15,6 -9,37c15,81 63,140 73,90zM6813,6951c-32,-82 -51,-97 -24,-18c31,87 43,113 48,101c2,-7 -8,-44 -24,-83zM3360,6907c0,-12 -11,-46 -25,-75c-20,-43 -32,-56 -67,-72c-46,-21 -88,-26 -88,-10c0,21 159,192 172,184c4,-3 8,-15 8,-27zM3528,6800c-6,-80 -30,-114 -85,-118c-26,-2 -44,2 -52,12c-18,22 -6,46 22,46c27,0 56,29 80,83c26,57 40,47 35,-23zM2765,6775c0,-12 -8,-21 -20,-23c-28,-3 -49,13 -42,33c10,25 62,16 62,-10zM3178,6684c27,-19 28,-31 3,-39c-29,-9 -71,12 -71,35c0,25 35,27 68,4zM6080,6687c0,-21 -60,-137 -71,-137c-12,0 -5,28 26,98c22,49 45,69 45,39zM2048,6616c-25,-23 -82,-61 -128,-85l-83,-44l7,27c3,14 2,26 -3,26c-12,0 -98,-69 -130,-104c-27,-29 -51,-34 -51,-10c0,22 93,108 137,127c21,9 65,27 98,40c33,14 87,36 120,50c32,14 64,23 69,20c5,-4 -11,-25 -36,-47zM1386,6573c19,-45 18,-63 -6,-63c-25,0 -40,36 -40,93c1,40 1,41 16,22c9,-11 22,-34 30,-52zM3492,6447c72,-57 108,-137 62,-137c-38,0 -143,133 -130,166c7,17 14,14 68,-29zM5840,6459c-12,-41 -88,-169 -100,-169c-14,0 35,112 78,178c21,32 32,27 22,-9zM1631,6361c-6,-10 -17,-23 -25,-30c-26,-22 -76,-168 -87,-254c-6,-52 -23,-114 -45,-167c-44,-107 -48,-113 -59,-111c-18,3 -4,75 31,162c19,47 39,114 45,150c15,99 113,290 140,274c6,-4 5,-13 0,-24zM1710,6368c0,-14 -50,-68 -62,-68c-18,0 -6,40 18,59c30,24 44,27 44,9zM4986,6166c10,-39 -14,-95 -42,-102c-19,-5 -32,0 -55,22c-16,15 -29,31 -29,36c0,13 82,68 101,68c11,0 21,-10 25,-24zM1680,6140c0,-18 -70,-228 -95,-285c-14,-30 -29,-55 -35,-55c-16,0 -12,39 15,124c14,45 30,100 35,123c14,57 80,134 80,93zM1366,5981c-10,-117 -45,-188 -60,-125c-14,56 22,194 52,194c12,0 14,-11 8,-69zM5340,5996c0,-33 -142,-196 -171,-196c-17,0 6,32 66,90c31,30 63,70 70,88c14,32 35,44 35,18zM5080,5803c0,-3 -10,-20 -23,-37c-13,-17 -27,-39 -30,-49c-7,-19 -28,-19 -34,0c-3,7 12,30 33,52c33,38 54,51 54,34zM1468,5524c-3,-19 -34,-41 -43,-32c-4,4 -4,16 0,27c8,25 48,29 43,5zM2180,5501c0,-19 -52,-72 -87,-90c-19,-10 -23,-9 -23,4c0,25 27,71 55,94c29,22 55,18 55,-8zM1358,5444c12,-4 22,-11 22,-17c0,-12 -79,-87 -92,-87c-15,0 -9,78 8,94c17,17 27,19 62,10zM1986,5346c9,-24 -77,-139 -92,-123c-10,10 19,87 42,112c26,28 42,32 50,11zM3041,5244c10,-13 10,-17 -2,-25c-19,-12 -56,-11 -64,1c-9,15 13,40 35,40c10,0 23,-7 31,-16zM6553,5200c112,-30 187,-65 187,-88c0,-25 -47,-72 -72,-72c-10,0 -47,27 -83,60c-35,32 -76,62 -92,65c-58,12 -78,21 -81,38c-5,24 43,23 141,-3zM1140,5121c0,-14 -72,-100 -139,-166c-34,-33 -61,-55 -61,-50c0,20 54,91 119,158c63,64 81,77 81,58zM2030,5102c0,-5 -17,-35 -38,-68c-65,-99 -115,-129 -71,-42c29,58 77,118 95,118c8,0 14,-4 14,-8zM5123,5039c45,-37 48,-59 8,-59c-34,0 -61,30 -61,67c0,30 8,29 53,-8zM6936,5049c84,-26 144,-58 144,-77c0,-11 -8,-13 -32,-8c-46,9 -179,64 -209,87l-24,19h26c15,0 58,-9 95,-21zM7335,4890c107,-69 136,-78 169,-57c28,19 54,14 136,-28c79,-39 146,-93 186,-147c19,-28 60,-64 98,-88c70,-44 150,-124 143,-143c-2,-7 -13,-13 -25,-15c-15,-2 -47,21 -112,82c-111,104 -197,169 -272,207c-31,16 -73,43 -92,60c-29,25 -39,28 -55,20c-39,-21 -76,-11 -176,50c-55,33 -124,71 -152,84c-38,17 -51,28 -47,39c15,39 67,22 199,-64zM5578,4936c23,-23 8,-48 -25,-41c-123,27 -156,73 -44,62c30,-3 61,-13 69,-21zM8146,4341c34,-49 64,-152 64,-216c0,-51 -1,-54 -30,-60c-44,-10 -126,4 -153,25l-22,18l25,10c14,6 40,16 58,22c36,14 46,50 13,50c-28,0 -72,62 -78,110c-6,46 1,49 35,18l25,-23l-6,41c-4,22 -4,43 -1,46c12,13 47,-7 70,-41zM254,2834c10,-25 7,-82 -4,-89c-17,-11 -40,15 -40,45c0,38 9,60 25,60c7,0 16,-7 19,-16zM1466,2655c15,-20 24,-38 21,-42c-10,-9 -67,18 -77,38c-28,51 18,54 56,4zM486,2597c18,-16 25,-30 21,-40c-9,-24 -25,-21 -58,13c-48,47 -15,71 37,27zM3016,1985c119,-45 221,-113 330,-220c103,-102 176,-201 193,-262c5,-18 37,-79 71,-134c34,-55 71,-123 82,-152c11,-28 46,-102 79,-163c76,-143 109,-231 116,-312c5,-54 11,-71 35,-95c32,-34 33,-38 16,-55c-34,-34 -92,19 -104,94c-3,25 -17,58 -30,74c-42,50 -94,172 -109,259c-12,68 -27,107 -86,219c-98,185 -160,288 -204,340c-44,51 -249,223 -397,334c-60,44 -108,85 -108,89c0,16 49,9 116,-16zM3460,1802c58,-56 73,-82 48,-82c-15,0 -128,113 -128,128c0,24 22,11 80,-46zM2539,1584c23,-16 24,-17 6,-30c-10,-8 -29,-14 -41,-14c-26,0 -40,-15 -58,-66c-16,-49 -42,-53 -39,-6c0,18 9,42 18,52c16,18 15,20 -18,33c-49,21 -53,35 -15,46c43,13 115,5 147,-15zM3762,1441c39,-46 94,-135 110,-179c11,-27 10,-34 -5,-49c-13,-13 -22,-15 -35,-7c-20,12 -132,227 -132,255c0,30 26,22 62,-20zM2610,1425c35,-18 52,-46 40,-65c-8,-12 -18,-10 -65,13c-51,25 -65,43 -48,60c11,11 42,8 73,-8zM2718,1328c19,-19 -6,-38 -49,-38c-44,0 -60,17 -34,37c23,16 67,17 83,1zM2975,1196c85,-40 167,-103 199,-155c13,-21 47,-52 75,-70c28,-18 60,-48 72,-67c26,-43 85,-216 94,-277c6,-39 4,-47 -13,-56c-41,-22 -142,-4 -142,25c0,8 20,23 45,34c25,11 45,22 45,25c0,15 -76,194 -93,220c-83,122 -260,264 -332,265c-25,1 -35,9 -60,47c-16,26 -31,50 -33,54c-5,13 69,-11 143,-45zM3733,598c43,-87 46,-252 6,-317c-22,-36 -38,-36 -56,0c-13,25 -19,313 -7,344c10,26 38,13 57,-27zM3847,232c-14,-143 -90,-210 -138,-121c-8,15 -2,27 30,59c22,23 48,62 57,88c10,26 22,53 27,60c19,24 30,-17 24,-86z"></path><path d="M5455,12459c-35,-64 -55,-139 -55,-206c0,-46 12,-74 26,-60c3,2 9,43 14,90c6,47 15,99 21,114c23,57 38,113 30,113c-4,0 -20,-23 -36,-51z"></path><path d="M5587,12476c-29,-43 -67,-153 -66,-189c0,-17 3,-25 6,-17c3,8 23,57 45,109c41,97 49,149 15,97z"></path><path d="M5694,12409c-43,-86 -74,-177 -74,-217l1,-37l15,28c21,38 97,268 90,274c-2,3 -17,-19 -32,-48z"></path><path d="M5190,12328c-21,-47 -25,-94 -10,-118c9,-13 11,-13 20,0c10,17 30,100 30,130c0,37 -21,31 -40,-12z"></path><path d="M5099,12333c-11,-30 -4,-73 11,-73c6,0 10,23 10,50c0,56 -6,63 -21,23z"></path><path d="M4562,12125c-66,-18 -101,-36 -178,-91c-164,-116 -238,-274 -200,-425c38,-148 68,-184 223,-274l83,-48l137,5c171,6 191,14 333,136c134,114 154,149 155,257c0,65 -5,90 -24,130c-41,85 -234,258 -332,299c-55,23 -138,27 -197,11zM4742,11951c38,-32 90,-61 112,-61c37,0 66,-44 82,-125c28,-139 28,-141 0,-188c-48,-83 -140,-147 -251,-174c-58,-14 -78,-15 -137,-5c-90,16 -185,60 -244,113c-47,44 -91,120 -79,139c11,17 42,11 73,-15c35,-29 49,-31 80,-9c22,15 22,17 7,41c-24,36 -15,65 29,89c28,16 48,39 72,85c68,128 180,177 256,110z"></path><path d="M4640,11793c-16,-21 -19,-35 -14,-68c8,-57 -7,-67 -68,-48c-26,9 -54,13 -62,10c-34,-13 -50,-173 -21,-214c20,-28 62,-37 136,-28c50,6 70,15 121,53c68,51 118,121 118,164c0,74 -88,158 -165,158c-14,0 -32,-11 -45,-27z"></path><path d="M5360,12120c-14,-4 -49,-8 -77,-9c-61,-1 -67,-13 -33,-68c24,-41 49,-53 100,-51c22,1 46,-4 52,-10c31,-31 64,8 54,63c-6,32 -47,86 -63,84c-4,-1 -19,-5 -33,-9z"></path><path d="M5235,11840c-21,-23 -34,-88 -34,-181c-1,-85 -25,-121 -146,-221c-115,-95 -123,-105 -104,-123c16,-15 141,-55 174,-55c22,0 65,42 126,120c29,38 49,34 49,-10c0,-44 17,-45 44,-3c48,72 88,217 100,366l7,77h-71c-66,0 -71,2 -80,25c-12,30 -40,32 -65,5zM5367,11633c-8,-66 -23,-103 -43,-103c-14,0 -15,7 -10,41c16,98 64,154 53,62z"></path><path d="M5562,11813c-7,-3 -19,-17 -26,-31c-15,-30 -96,-333 -96,-361c0,-23 33,-53 51,-46c22,8 36,36 54,109c9,36 32,103 51,149c55,133 41,210 -34,180z"></path><path d="M5727,11762c-21,-23 -79,-149 -106,-229c-25,-74 -26,-112 -6,-139c15,-19 15,-19 34,3c10,12 22,39 26,60c3,21 26,88 51,150c45,114 55,173 31,173c-8,0 -21,-8 -30,-18z"></path><path d="M5817,11710c-15,-12 -27,-30 -27,-41c0,-11 -13,-48 -29,-84c-38,-84 -46,-120 -31,-155c20,-48 58,-50 78,-4c16,34 28,30 58,-21c24,-42 28,-45 44,-30c23,21 28,19 44,-19c16,-38 42,-51 86,-41c39,8 45,20 26,47c-9,12 -16,30 -16,39c0,21 32,49 57,49c11,0 30,11 43,25c31,33 20,65 -33,109c-35,28 -45,31 -100,29c-34,-1 -76,-4 -94,-8l-32,-6l2,63c2,61 1,63 -24,66c-14,2 -37,-6 -52,-18z"></path><path d="M4795,10829c-9,-13 62,-80 107,-102c20,-9 51,-17 70,-17l33,1l-49,45c-74,68 -145,100 -161,73z"></path><path d="M5017,10833c-13,-12 -7,-40 12,-57c16,-15 20,-15 31,-1c20,24 -22,80 -43,58z"></path><path d="M4700,10767c0,-8 24,-33 53,-55c90,-70 138,-81 106,-24c-29,53 -159,118 -159,79z"></path><path d="M4487,10753c-13,-13 -7,-21 25,-32c18,-6 78,-38 133,-71c56,-33 107,-60 113,-60c20,0 34,38 22,61c-25,45 -266,130 -293,102z"></path><path d="M3950,10663c1,-45 44,-65 233,-110c167,-38 235,-48 272,-39c33,8 31,22 -5,41c-37,19 -40,45 -5,45c14,0 58,-11 97,-25c87,-30 108,-32 108,-5c0,50 -120,100 -240,100c-75,0 -102,-15 -93,-50c3,-12 0,-22 -9,-25c-22,-9 -160,22 -252,56c-93,34 -106,35 -106,12z"></path><path d="M5324,10520c-40,-9 -54,-18 -54,-35c0,-19 65,-30 96,-16c22,10 42,37 33,45c-11,10 -48,13 -75,6z"></path><path d="M4580,10451c0,-5 15,-20 33,-33c17,-12 58,-47 90,-76c32,-30 74,-60 93,-68c46,-19 203,-19 230,0c18,14 18,15 -9,25c-16,6 -61,11 -101,11c-90,0 -125,12 -151,52c-33,52 -185,124 -185,89z"></path><path d="M3870,10064c0,-4 25,-33 55,-66c30,-32 55,-63 55,-68c0,-17 -45,-40 -91,-46c-40,-5 -95,7 -171,41c-12,4 -18,3 -18,-5c0,-7 8,-19 18,-26c16,-13 16,-15 -3,-30c-14,-11 -31,-14 -57,-10c-21,3 -56,9 -78,12c-37,6 -41,5 -57,-27c-10,-18 -29,-43 -42,-56c-25,-24 -23,-53 4,-53c9,0 46,16 84,35c37,19 81,35 97,35l29,-1l-30,-27c-17,-15 -44,-37 -60,-50c-29,-22 -29,-23 -5,-16c14,3 57,24 95,47c162,94 167,96 260,106c158,17 300,23 327,12c30,-11 58,-57 58,-94c0,-28 26,-43 46,-26c17,14 18,59 3,93c-14,30 -46,41 -159,56c-121,16 -146,25 -230,89c-92,71 -130,92 -130,75z"></path><path d="M3904,9790c-18,-4 -67,-27 -110,-52c-44,-25 -116,-64 -161,-86c-83,-42 -108,-62 -76,-62c16,1 68,27 313,156c26,14 84,30 135,38l90,14h-80c-44,0 -94,-3 -111,-8z"></path><path d="M3470,9671c-37,-12 -108,-49 -115,-62c-4,-5 -4,-13 -1,-16c8,-8 131,45 159,68c21,18 21,18 2,18c-11,0 -31,-4 -45,-8z"></path><path d="M2262,9745c-19,-67 -61,-320 -67,-402c-14,-177 39,36 70,284c17,137 16,188 -3,118z"></path><path d="M2540,7928c0,-51 7,-78 21,-78c15,0 10,85 -6,106c-13,18 -14,16 -15,-28z"></path><path d="M1898,7785c-57,-108 -159,-398 -145,-412c8,-8 25,29 63,138c19,56 51,140 70,186c36,86 44,148 12,88z"></path><path d="M2598,7658c-8,-13 -20,-39 -28,-58c-7,-19 -26,-52 -41,-72c-31,-40 -38,-78 -14,-78c22,0 135,178 135,214c0,24 -35,20 -52,-6z"></path><path d="M1706,7263c-16,-49 -37,-235 -43,-370c-5,-132 -4,-155 11,-177c36,-56 41,-36 41,181c0,115 4,247 8,296c5,56 5,87 -2,87c-5,0 -12,-8 -15,-17z"></path><path d="M1892,7173c-31,-60 -102,-347 -102,-414c0,-24 4,-30 17,-27c10,2 23,14 29,28c13,28 77,420 70,427c-2,3 -9,-4 -14,-14z"></path><path d="M2016,7109c-19,-46 -46,-210 -46,-276c0,-46 14,-57 24,-20c8,26 45,331 41,335c-1,2 -10,-16 -19,-39z"></path><path d="M1587,7057c-8,-22 -9,-352 -1,-384c16,-59 24,-9 23,140c-1,178 -9,274 -22,244z"></path><path d="M2150,6891c-5,-11 -10,-32 -10,-46c0,-20 4,-26 18,-23c12,2 18,15 20,46c3,44 -10,56 -28,23z"></path><path d="M4737,8982c-34,-63 -49,-102 -37,-102c10,0 64,92 75,128c11,39 -11,24 -38,-26z"></path><path d="M5317,8978c-18,-40 -23,-88 -8,-88c15,0 33,56 29,91l-4,34z"></path><path d="M4862,8523c-5,-10 -19,-54 -31,-97c-12,-44 -32,-100 -45,-125c-13,-25 -33,-65 -45,-89c-23,-46 -25,-102 -3,-110c26,-8 167,348 160,407c-4,30 -23,38 -36,14z"></path><path d="M6242,8039c-26,-13 -59,-43 -83,-74c-61,-81 -50,-96 36,-45c46,28 85,38 85,24c0,-4 -12,-28 -27,-55c-14,-27 -23,-52 -20,-56c4,-3 24,-1 46,5c41,13 81,16 81,6c0,-3 -9,-17 -20,-31c-35,-44 -27,-57 30,-49c58,8 73,-7 46,-46c-29,-41 -21,-57 32,-60c40,-3 47,-6 50,-25c2,-13 10,-23 19,-23c21,0 83,64 83,85c0,17 -17,18 -80,3c-31,-7 -22,46 15,89c50,58 47,73 -15,73c-54,0 -62,10 -35,46c8,10 15,29 15,42c0,26 -31,30 -70,7c-14,-8 -31,-14 -37,-15c-20,0 -15,54 7,83c11,14 20,28 20,31c0,3 -30,6 -67,6c-49,0 -80,-6 -111,-21z"></path><path d="M5973,7669c-36,-10 -67,-48 -61,-75c2,-10 18,-22 37,-29c19,-6 38,-21 42,-33c7,-19 53,-55 84,-65c5,-2 -12,-28 -38,-58c-26,-29 -46,-58 -44,-64c9,-27 215,-5 225,24c4,11 -4,13 -35,9c-40,-6 -73,5 -73,23c0,5 20,29 45,53c50,49 56,76 22,99c-13,8 -28,30 -33,48c-17,59 -97,91 -171,68z"></path><path d="M3802,6581c-59,-47 -97,-97 -82,-106c6,-4 23,1 38,11c36,24 132,115 132,125c0,21 -42,6 -88,-30z"></path><path d="M2687,6568c-38,-14 -29,-30 24,-46c81,-24 103,-48 47,-54c-24,-2 -32,-7 -29,-18c2,-8 6,-28 9,-45c3,-16 16,-40 29,-53c23,-21 24,-24 9,-47c-21,-32 -21,-33 19,-49c40,-17 43,-26 15,-51c-55,-50 24,-145 123,-145c31,0 20,39 -18,62c-47,27 -42,50 12,63c64,16 73,31 29,49c-20,8 -36,20 -36,26c0,6 19,19 43,29l42,18l-35,21c-19,12 -38,22 -42,22c-15,0 -8,21 10,27c33,12 43,25 31,39c-12,15 -4,34 15,34c27,0 116,31 116,41c0,14 -91,55 -165,74c-66,17 -205,19 -248,3z"></path><path d="M3914,6435c-57,-28 -109,-78 -99,-94c9,-15 87,27 145,79c37,32 41,39 24,40c-11,0 -43,-11 -70,-25z"></path><path d="M4053,6340c-41,-25 -123,-104 -123,-118c0,-20 16,-14 77,31c32,24 66,47 76,50c17,6 24,42 9,51c-5,3 -22,-3 -39,-14z"></path><path d="M2212,6127c-25,-26 -40,-72 -34,-99c6,-29 18,-21 31,21c6,22 25,54 42,70c30,31 30,31 7,31c-14,0 -34,-11 -46,-23z"></path><path d="M2079,5883c-5,-16 -17,-33 -26,-40c-20,-15 -10,-43 15,-43c26,0 72,38 72,59c0,17 -29,51 -44,51c-3,0 -11,-12 -17,-27z"></path><path d="M2417,2093c-14,-13 -6,-53 12,-63c42,-22 211,-5 185,19c-10,9 -155,51 -177,51c-8,0 -17,-3 -20,-7z"></path><path d="M5410,5292c0,-14 36,-22 95,-22c64,1 42,15 -37,25c-37,5 -58,4 -58,-3z"></path></g></g></g></svg>