<?xml version="1.0" standalone="no"?>
<!DOCTYPE svg PUBLIC "-//W3C//DTD SVG 20010904//EN"
 "http://www.w3.org/TR/2001/REC-SVG-20010904/DTD/svg10.dtd">
<svg version="1.0" xmlns="http://www.w3.org/2000/svg"
 width="512.000000pt" height="512.000000pt" viewBox="0 0 512.000000 512.000000"
 preserveAspectRatio="xMidYMid meet">

<g transform="translate(0.000000,512.000000) scale(0.100000,-0.100000)"
fill="#000000" stroke="none">
<path d="M1270 4334 c-152 -40 -304 -162 -374 -302 -119 -236 -72 -512 117
-694 l51 -48 -3 -108 c-3 -153 16 -356 43 -465 28 -109 80 -224 136 -298 39
-53 40 -55 40 -139 l0 -85 -53 95 c-183 329 -432 594 -660 701 -94 43 -198 63
-270 50 -316 -56 -386 -459 -174 -1006 148 -385 374 -660 811 -988 l88 -66
-342 -3 -342 -3 -29 -33 c-33 -37 -37 -77 -14 -122 8 -16 24 -34 34 -40 13 -7
735 -10 2236 -10 1984 0 2218 2 2239 15 53 35 58 121 10 166 l-26 24 -340 3
-340 3 88 66 c125 94 317 259 395 340 161 166 257 302 352 501 75 158 83 204
39 253 -24 27 -37 34 -69 34 -61 0 -84 -23 -127 -121 -123 -289 -296 -502
-605 -748 -124 -99 -313 -236 -326 -236 -19 0 22 414 61 611 49 255 124 444
251 639 202 308 445 510 614 510 44 0 55 -4 79 -29 15 -17 34 -56 44 -90 22
-79 62 -115 120 -108 24 3 49 16 65 31 72 73 -16 295 -145 368 -167 93 -385
31 -632 -180 -126 -109 -317 -357 -419 -547 l-43 -80 0 85 c0 82 1 87 36 135
125 175 172 351 179 684 l5 193 67 72 c105 110 162 250 163 397 1 264 -189
509 -445 574 -76 19 -214 19 -289 0 -124 -33 -270 -134 -343 -239 l-20 -29
-129 26 c-199 40 -303 50 -509 50 -209 0 -315 -10 -509 -50 l-129 -26 -20 29
c-74 106 -217 206 -343 238 -76 20 -220 20 -294 0z m313 -232 c76 -38 134 -97
177 -181 23 -46 40 -66 65 -78 34 -16 40 -16 183 20 236 58 273 62 557 62 284
0 321 -4 557 -62 144 -36 149 -36 183 -20 26 12 42 31 61 72 39 82 104 149
182 187 61 30 74 33 162 33 88 0 101 -3 162 -33 137 -67 211 -187 212 -342 1
-77 -2 -92 -31 -150 -35 -70 -82 -125 -149 -171 -24 -16 -46 -39 -50 -52 -4
-12 -7 -82 -5 -154 l3 -133 -79 -36 c-280 -129 -541 -188 -729 -165 -46 6
-117 22 -158 36 -217 75 -431 75 -646 -1 -40 -14 -110 -30 -155 -35 -189 -23
-474 42 -730 167 l-76 37 2 131 c1 72 -1 141 -5 153 -4 12 -35 42 -70 67 -66
47 -101 91 -138 171 -34 76 -32 209 4 287 32 69 107 152 163 181 73 37 117 47
202 44 67 -3 92 -9 146 -35z m-130 -1308 c127 -50 300 -92 433 -105 146 -15
281 -2 412 41 196 63 320 65 512 6 189 -58 288 -67 483 -41 133 17 286 59 435
120 59 23 108 42 109 41 9 -7 -36 -157 -67 -221 -110 -229 -354 -367 -760
-430 -143 -22 -565 -31 -740 -16 -486 43 -787 189 -908 441 -34 69 -71 186
-72 223 0 4 17 0 38 -9 20 -9 76 -31 125 -50z m-991 12 c200 -82 490 -408 623
-701 67 -146 129 -381 159 -600 20 -142 41 -423 33 -431 -7 -8 -214 138 -344
243 -129 104 -283 252 -359 347 -204 253 -355 638 -358 911 -1 116 15 183 54
225 24 26 35 30 82 30 32 0 75 -10 110 -24z m1121 -665 c45 -22 106 -47 135
-57 l52 -19 0 -542 0 -543 -140 0 -140 0 0 600 c0 330 3 600 6 600 3 0 42 -18
87 -39z m2047 -561 l0 -600 -125 0 -125 0 2 546 3 545 90 38 c50 20 102 45
115 54 13 9 28 17 32 17 5 0 8 -270 8 -600z m-1529 414 c227 -34 702 -34 928
0 58 9 110 16 118 16 11 0 13 -94 13 -515 l0 -515 -590 0 -590 0 0 515 c0 283
4 515 8 515 5 0 55 -7 113 -16z"/>
<path d="M1128 3880 c-29 -29 -30 -34 -26 -98 15 -264 331 -393 528 -215 115
104 148 283 59 328 -79 42 -148 -3 -164 -107 -8 -50 -53 -88 -106 -88 -68 0
-99 33 -114 122 -13 84 -117 118 -177 58z"/>
<path d="M3427 3886 c-71 -66 -36 -221 73 -319 139 -125 361 -103 468 47 43
59 62 116 62 183 0 47 -4 59 -29 84 -59 59 -163 24 -176 -59 -15 -89 -48 -122
-121 -122 -51 0 -104 53 -104 105 0 29 -8 45 -34 71 -43 43 -99 47 -139 10z"/>
<path d="M2217 3594 c-30 -29 -42 -77 -32 -122 17 -82 117 -111 176 -53 25 26
29 37 29 86 0 49 -4 60 -29 86 -40 40 -106 41 -144 3z"/>
<path d="M2728 3591 c-29 -26 -32 -34 -32 -85 0 -48 4 -60 29 -86 56 -58 152
-32 174 48 33 116 -85 200 -171 123z"/>
<path d="M4936 2478 c-37 -37 -54 -106 -37 -150 36 -95 173 -88 201 10 19 68
13 101 -24 138 -47 47 -95 47 -140 2z"/>
</g>
</svg>
